<svg width="935" height="678" viewBox="0 0 935 678" fill="none" xmlns="http://www.w3.org/2000/svg">
<g filter="url(#filter0_d)">
<path d="M142.896 667.807C140.769 667.807 90.4945 667.42 52.7885 631.831C15.2758 596.63 0 511.72 0 338.807C0 166.086 15.2758 81.177 52.7885 45.9753C90.6879 10.3868 140.769 10 142.896 10H772.104C774.231 10 824.505 10.3868 862.211 45.9753C899.724 81.177 915 166.086 915 339C915 511.914 899.724 596.823 862.211 632.025C824.312 667.613 774.231 668 772.104 668H142.896V667.807Z" fill="white"/>
</g>
<path d="M151.148 656.813C149.077 656.813 100.121 656.44 63.4038 622.096C26.8751 588.124 12 506.183 12 339.313C12 172.63 26.8751 90.689 63.4038 56.7178C100.309 22.3733 149.077 22 151.148 22H763.852C765.923 22 814.879 22.3733 851.596 56.7178C888.125 90.689 903 172.631 903 339.5C903 506.369 888.125 588.311 851.596 622.282C814.691 656.627 765.923 657 763.852 657H151.148V656.813Z" stroke="#ECEEF1" stroke-miterlimit="10" stroke-linecap="round" stroke-linejoin="round"/>
<g filter="url(#filter1_i)">
<path d="M414.215 302L407.555 320.131L392.175 361.124H385.04L369.659 320.131V361.124H363V302H369.818L388.687 351.822L407.397 302H414.215ZM414.215 327.699V361.282H407.555V327.226C407.555 326.438 407.872 325.65 408.506 325.019C409.141 324.388 409.775 324.073 410.726 324.073C411.678 324.073 412.47 324.388 413.105 325.019C413.897 325.807 414.215 326.753 414.215 327.699Z" fill="#F8F7F2"/>
<path d="M423.887 361.124H417.227L439.108 302H446.243L468.125 361.124H461.465L454.33 342.204H441.487C440.377 342.204 439.743 341.889 439.267 341.101C438.791 340.47 438.633 339.524 438.633 338.736C438.633 337.947 438.95 337.159 439.584 336.528C440.218 335.898 440.852 335.582 441.804 335.582H451.793L442.597 311.46L423.887 361.124Z" fill="#F8F7F2"/>
<path d="M477.797 302V328.645L496.983 302H504.911L477.797 339.997V361.124H471.137V302H477.797ZM510.619 361.124H502.691L486.518 337.001C486.042 336.371 485.883 335.582 485.883 334.794C485.883 333.848 486.201 333.06 486.676 332.271C487.311 331.483 487.945 331.168 488.896 331.168C490.006 331.168 490.799 331.641 491.433 332.587L510.619 361.124Z" fill="#F8F7F2"/>
<path d="M549.466 302V308.622H524.73C524.255 308.622 523.62 308.622 522.669 308.78C521.718 308.937 520.608 309.253 519.656 309.726C518.547 310.199 517.754 311.145 516.802 312.248C516.01 313.352 515.534 314.928 515.534 316.82C515.534 318.397 516.01 319.658 516.802 320.604C517.595 321.708 518.547 322.496 519.656 323.127C520.766 323.758 521.718 324.231 522.669 324.546C523.62 324.861 524.413 325.019 524.73 325.019H537.257C538.525 325.019 540.111 325.334 542.014 325.965C543.758 326.596 545.502 327.542 547.088 328.961C548.673 330.38 550.1 332.271 551.21 334.479C552.32 336.844 552.954 339.682 552.954 343.15C552.954 346.619 552.32 349.457 551.21 351.822C550.1 354.187 548.673 355.921 547.088 357.34C545.502 358.759 543.758 359.705 542.014 360.336C540.269 360.966 538.684 361.282 537.257 361.282H512.363V354.66H537.098C537.574 354.66 538.208 354.502 539.16 354.344C540.111 354.187 541.221 353.556 542.172 352.768C543.282 351.979 544.075 350.876 545.026 349.299C545.978 347.723 546.295 345.673 546.295 343.15C546.295 340.628 545.819 338.578 545.026 337.001C544.234 335.425 543.282 334.321 542.172 333.533C541.062 332.744 540.111 332.271 539.16 331.956C538.208 331.798 537.415 331.641 537.098 331.641H524.73C523.303 331.641 521.718 331.483 519.974 331.01C518.229 330.537 516.485 329.749 514.9 328.645C513.314 327.542 511.887 325.965 510.777 324.073C509.667 322.181 509.033 319.816 509.033 316.82C509.033 313.352 509.667 310.672 510.777 308.78C511.887 306.888 513.314 305.469 514.9 304.523C516.485 303.577 518.229 302.946 519.974 302.631C521.718 302.315 523.303 302.158 524.73 302.158H549.466V302Z" fill="#F8F7F2"/>
</g>
<defs>
<filter id="filter0_d" x="0" y="0" width="935" height="678" filterUnits="userSpaceOnUse" color-interpolation-filters="sRGB">
<feFlood flood-opacity="0" result="BackgroundImageFix"/>
<feColorMatrix in="SourceAlpha" type="matrix" values="0 0 0 0 0 0 0 0 0 0 0 0 0 0 0 0 0 0 127 0"/>
<feOffset dx="10"/>
<feGaussianBlur stdDeviation="5"/>
<feColorMatrix type="matrix" values="0 0 0 0 0 0 0 0 0 0 0 0 0 0 0 0 0 0 0.1 0"/>
<feBlend mode="normal" in2="BackgroundImageFix" result="effect1_dropShadow"/>
<feBlend mode="normal" in="SourceGraphic" in2="effect1_dropShadow" result="shape"/>
</filter>
<filter id="filter1_i" x="363" y="302" width="189.954" height="62.2816" filterUnits="userSpaceOnUse" color-interpolation-filters="sRGB">
<feFlood flood-opacity="0" result="BackgroundImageFix"/>
<feBlend mode="normal" in="SourceGraphic" in2="BackgroundImageFix" result="shape"/>
<feColorMatrix in="SourceAlpha" type="matrix" values="0 0 0 0 0 0 0 0 0 0 0 0 0 0 0 0 0 0 127 0" result="hardAlpha"/>
<feOffset dy="3"/>
<feGaussianBlur stdDeviation="1.5"/>
<feComposite in2="hardAlpha" operator="arithmetic" k2="-1" k3="1"/>
<feColorMatrix type="matrix" values="0 0 0 0 0 0 0 0 0 0 0 0 0 0 0 0 0 0 0.25 0"/>
<feBlend mode="normal" in2="shape" result="effect1_innerShadow"/>
</filter>
</defs>
</svg>
