<?xml version="1.0" encoding="utf-8"?><svg xmlns="http://www.w3.org/2000/svg" xmlns:xlink="http://www.w3.org/1999/xlink"><symbol  viewBox="0 0 55 62" id="alarm" xmlns="http://www.w3.org/2000/svg"><path d="M1 61h53.684v-2.217c0-3.187-2.446-5.681-5.572-5.681H6.572C3.446 53.102 1 55.596 1 58.782V61zm2.039-2.356c.136-1.94 1.63-3.325 3.533-3.325h42.54c1.903 0 3.398 1.524 3.534 3.325v.416H3.039v-.416z" stroke-width=".5"/><path d="M48.976 32.87c0-11.223-8.97-20.369-19.979-20.369h-2.31c-11.009.139-19.979 9.146-19.979 20.37v21.34c0 .553.408 1.108 1.088 1.108h40.229c.543 0 1.087-.416 1.087-1.109V32.87h-.136zm-2.038 20.232H8.746V32.87c0-10.116 8.019-18.291 17.94-18.291h2.31c9.922 0 17.94 8.175 17.94 18.29v20.232z" stroke-width=".5"/><path d="M28.861 2.109c0-.555-.407-1.109-1.087-1.109-.68 0-.951.416-.951 1.109v5.82c0 .554.408 1.108 1.087 1.108.68 0 1.087-.416 1.087-1.109v-5.82h-.136zM10.242 14.718l-4.077-4.157a1.028 1.028 0 0 0-.68-.277.745.745 0 0 0-.68.416c-.407.416-.407.97 0 1.386l4.078 4.157a1.052 1.052 0 0 0 1.495 0c.272-.416.272-1.109-.136-1.525zm35.2 1.524a1.052 1.052 0 0 0 1.495 0l4.078-4.157c.271-.415.271-.97-.136-1.385a1.028 1.028 0 0 0-.68-.277c-.272 0-.543.138-.68.277l-4.077 4.157c-.407.277-.407.97 0 1.386zm-19.435 5.682v-2.079c-6.66.139-11.96 5.543-12.096 12.333h2.04c.135-5.543 4.62-10.116 10.056-10.254z" fill="currentColor" class="color-path" stroke="currentColor" stroke-width=".5"/></symbol><symbol viewBox="0 0 112 34" id="app-store" xmlns="http://www.w3.org/2000/svg"><path d="M18.7 5.424C19.995 3.886 20.643 1.943 20.481 0c-1.943.162-3.724 1.133-4.938 2.59a7.389 7.389 0 0 0-1.862 5.262c1.943.162 3.886-.971 5.019-2.428zm4.29 12.628c0-4.29 3.481-6.395 3.643-6.476-1.457-2.024-3.723-3.238-6.152-3.319-2.672-.324-5.181 1.538-6.476 1.538-1.376 0-3.4-1.538-5.667-1.457-2.833 0-5.424 1.62-6.962 4.21-2.914 5.18-.728 12.952 2.186 17.161C4.857 31.733 6.638 34 8.905 34c2.104-.081 2.914-1.376 5.505-1.376 2.59 0 3.319 1.376 5.666 1.295 2.267 0 3.724-2.105 5.1-4.128 1.62-2.43 2.348-4.696 2.348-4.858 0 0-4.453-1.7-4.534-6.88zM38.112 8.96c0-.597.102-1.19.308-1.778.215-.597.523-1.13.924-1.596a4.62 4.62 0 0 1 1.484-1.134c.588-.299 1.255-.448 2.002-.448.887 0 1.642.2 2.268.602a3.65 3.65 0 0 1 1.4 1.568l-.77.476a2.868 2.868 0 0 0-.588-.826 3.097 3.097 0 0 0-.728-.546 2.928 2.928 0 0 0-.812-.294 3.627 3.627 0 0 0-.826-.098c-.598 0-1.125.121-1.582.364-.458.243-.845.56-1.162.952a4.218 4.218 0 0 0-.7 1.33c-.159.485-.238.98-.238 1.484 0 .55.093 1.078.28 1.582.196.504.457.952.784 1.344.336.383.728.69 1.176.924.457.224.952.336 1.484.336.28 0 .564-.033.854-.098a3.539 3.539 0 0 0 1.624-.91c.233-.233.43-.513.588-.84l.812.42a3.12 3.12 0 0 1-.672.994 4.54 4.54 0 0 1-.966.714 4.789 4.789 0 0 1-1.134.448c-.392.103-.78.154-1.162.154-.681 0-1.307-.15-1.876-.448a4.973 4.973 0 0 1-1.47-1.162 5.66 5.66 0 0 1-.966-1.638 5.452 5.452 0 0 1-.336-1.876zm14.386-2.254h1.064l-2.758 3.528L53.798 14h-1.063l-2.576-3.332h-1.036V14h-.939V6.706h.938v3.22h.953l2.422-3.22zm4.22 7.434c-.345 0-.667-.056-.966-.168a2.64 2.64 0 0 1-.77-.49 2.254 2.254 0 0 1-.504-.714 2.228 2.228 0 0 1-.182-.896c0-.317.075-.611.224-.882.15-.27.36-.504.63-.7a2.99 2.99 0 0 1 .966-.448 4.274 4.274 0 0 1 1.232-.168c.374 0 .752.033 1.134.098.383.065.724.159 1.022.28v-.658c0-.644-.182-1.153-.546-1.526-.364-.383-.868-.574-1.512-.574-.373 0-.756.075-1.148.224-.392.15-.788.364-1.19.644l-.336-.63c.943-.635 1.858-.952 2.744-.952.915 0 1.634.257 2.156.77.523.513.784 1.223.784 2.128v3.29c0 .261.117.392.35.392V14a2.27 2.27 0 0 1-.364.042c-.242 0-.434-.06-.574-.182-.13-.121-.2-.29-.21-.504l-.028-.574c-.336.439-.76.775-1.274 1.008-.504.233-1.05.35-1.638.35zm.224-.728c.495 0 .948-.093 1.358-.28.42-.187.738-.434.952-.742a.799.799 0 0 0 .182-.266.686.686 0 0 0 .07-.28v-1.19a5.794 5.794 0 0 0-2.03-.378c-.672 0-1.218.14-1.638.42-.42.28-.63.649-.63 1.106 0 .224.042.434.126.63.094.196.215.369.364.518a1.876 1.876 0 0 0 1.246.462zm10.19.588h-.951v-3.038a4.12 4.12 0 0 1-.756.21 7.324 7.324 0 0 1-1.022.056c-.439 0-.807-.065-1.106-.196a1.966 1.966 0 0 1-.714-.532 2.086 2.086 0 0 1-.406-.798 4.458 4.458 0 0 1-.112-1.022V6.706h.938v1.806c0 .69.135 1.18.406 1.47.27.28.658.42 1.162.42.392 0 .723-.037.994-.112.27-.084.476-.182.616-.294v-3.29h.952V14zm3.956.14a2.73 2.73 0 0 1-.966-.168 2.641 2.641 0 0 1-.77-.49 2.254 2.254 0 0 1-.505-.714 2.23 2.23 0 0 1-.181-.896c0-.317.074-.611.224-.882.149-.27.359-.504.63-.7a2.97 2.97 0 0 1 .966-.448 4.274 4.274 0 0 1 1.231-.168c.374 0 .752.033 1.135.098.382.065.723.159 1.022.28v-.658c0-.644-.182-1.153-.546-1.526-.365-.383-.868-.574-1.513-.574-.373 0-.755.075-1.147.224-.393.15-.79.364-1.19.644l-.337-.63c.943-.635 1.858-.952 2.744-.952.915 0 1.634.257 2.156.77.523.513.785 1.223.785 2.128v3.29c0 .261.116.392.35.392V14a2.27 2.27 0 0 1-.365.042c-.242 0-.434-.06-.574-.182-.13-.121-.2-.29-.21-.504L74 12.782c-.335.439-.76.775-1.273 1.008-.504.233-1.05.35-1.638.35zm.224-.728c.494 0 .947-.093 1.358-.28.42-.187.737-.434.951-.742a.797.797 0 0 0 .183-.266.685.685 0 0 0 .07-.28v-1.19a5.792 5.792 0 0 0-2.03-.378c-.672 0-1.218.14-1.638.42-.42.28-.63.649-.63 1.106 0 .224.042.434.126.63.093.196.214.369.364.518.158.14.345.252.56.336.214.084.443.126.685.126zM79.42 14h-.924V7.532h-2.562v-.826h6.048v.826H79.42V14zm3.915-7.294h.938v2.59h1.582a2.9 2.9 0 0 1 .952.154c.298.103.56.252.784.448.224.196.401.443.532.742.13.29.196.625.196 1.008s-.066.723-.196 1.022c-.13.29-.308.532-.532.728a2.325 2.325 0 0 1-.784.448 2.908 2.908 0 0 1-.952.154h-2.52V6.706zm2.52 6.482c.485 0 .859-.135 1.12-.406.27-.28.406-.658.406-1.134 0-.476-.136-.85-.406-1.12-.27-.28-.644-.42-1.12-.42h-1.582v3.08h1.582zm6.983-2.856c0-.513.089-.999.266-1.456.178-.457.425-.854.742-1.19a3.527 3.527 0 0 1 1.162-.812 3.663 3.663 0 0 1 1.484-.294c.691 0 1.293.159 1.806.476.514.308.901.728 1.162 1.26l-.924.294a2.158 2.158 0 0 0-.868-.868 2.353 2.353 0 0 0-1.218-.322c-.373 0-.723.075-1.05.224A2.739 2.739 0 0 0 94 9.17c-.13.355-.196.742-.196 1.162 0 .41.07.798.21 1.162.14.364.332.681.574.952.243.261.523.471.84.63a2.464 2.464 0 0 0 1.722.126c.234-.065.448-.154.644-.266a2.46 2.46 0 0 0 .504-.406c.14-.15.238-.308.294-.476l.938.28a2.476 2.476 0 0 1-.448.728 3.27 3.27 0 0 1-.7.574c-.261.159-.555.28-.882.364-.317.093-.648.14-.994.14a3.627 3.627 0 0 1-1.47-.294 3.709 3.709 0 0 1-1.162-.826 4.031 4.031 0 0 1-.77-1.218 4.03 4.03 0 0 1-.266-1.47zM41.85 20.06h.827l4.13 9.94H45.77l-1.288-3.108h-4.466L38.742 30h-1.05l4.158-9.94zm2.409 6.062l-2.002-4.914-2.03 4.914h4.032zm7.5 4.018c-.615 0-1.161-.154-1.637-.462a3.833 3.833 0 0 1-1.134-1.19v4.494h-.952V22.706h.854v1.414a3.47 3.47 0 0 1 1.162-1.106 2.93 2.93 0 0 1 1.554-.434 3 3 0 0 1 1.386.322c.42.205.784.485 1.092.84.308.345.546.747.714 1.204.177.457.266.929.266 1.414 0 .513-.08.999-.238 1.456a3.645 3.645 0 0 1-.686 1.204c-.29.345-.64.62-1.05.826a2.99 2.99 0 0 1-1.33.294zm-.265-.84a2.24 2.24 0 0 0 1.064-.252c.326-.168.602-.387.826-.658.233-.28.41-.593.532-.938a3.35 3.35 0 0 0 .182-1.092 3.09 3.09 0 0 0-.784-2.058 2.702 2.702 0 0 0-.868-.644 2.402 2.402 0 0 0-1.064-.238c-.243 0-.5.051-.77.154a2.983 2.983 0 0 0-.742.392c-.224.159-.42.35-.588.574a1.539 1.539 0 0 0-.294.686v2.24c.112.261.252.504.42.728.177.224.373.42.588.588.224.159.462.285.714.378.252.093.513.14.784.14zm8.906.84c-.616 0-1.162-.154-1.638-.462a3.83 3.83 0 0 1-1.134-1.19v4.494h-.952V22.706h.854v1.414a3.468 3.468 0 0 1 1.162-1.106 2.93 2.93 0 0 1 1.554-.434 3 3 0 0 1 1.386.322c.42.205.784.485 1.092.84.308.345.546.747.714 1.204.178.457.266.929.266 1.414 0 .513-.079.999-.238 1.456a3.649 3.649 0 0 1-.686 1.204c-.289.345-.639.62-1.05.826a2.99 2.99 0 0 1-1.33.294zm-.266-.84c.392 0 .747-.084 1.064-.252.327-.168.602-.387.826-.658.234-.28.411-.593.532-.938.122-.355.182-.719.182-1.092a3.093 3.093 0 0 0-.784-2.058 2.703 2.703 0 0 0-.868-.644 2.403 2.403 0 0 0-1.064-.238 2.17 2.17 0 0 0-.77.154 2.98 2.98 0 0 0-.742.392c-.224.159-.42.35-.588.574a1.537 1.537 0 0 0-.294.686v2.24c.112.261.252.504.42.728.178.224.374.42.588.588.224.159.462.285.714.378.252.093.514.14.784.14zm14.757-7.378c-.28-.317-.653-.574-1.12-.77-.466-.196-.998-.294-1.596-.294-.877 0-1.516.168-1.918.504-.401.327-.602.775-.602 1.344 0 .299.052.546.154.742.112.187.28.35.504.49.224.14.509.261.854.364.355.103.77.205 1.246.308.532.112 1.008.238 1.428.378.43.14.794.317 1.092.532.299.205.528.457.686.756.159.299.238.672.238 1.12 0 .457-.088.854-.266 1.19a2.373 2.373 0 0 1-.742.84 3.41 3.41 0 0 1-1.134.504 6.302 6.302 0 0 1-1.442.154c-1.54 0-2.87-.48-3.99-1.442l.49-.798c.178.187.388.364.63.532.252.168.528.317.826.448.308.121.635.22.98.294.346.065.71.098 1.092.098.794 0 1.41-.14 1.848-.42.448-.29.672-.723.672-1.302 0-.308-.065-.565-.196-.77a1.5 1.5 0 0 0-.56-.546 3.824 3.824 0 0 0-.938-.406 19.821 19.821 0 0 0-1.302-.336c-.522-.121-.98-.247-1.372-.378a3.658 3.658 0 0 1-.994-.49 1.992 1.992 0 0 1-.616-.7c-.13-.28-.196-.62-.196-1.022 0-.457.084-.863.252-1.218.178-.364.425-.663.742-.896a3.296 3.296 0 0 1 1.12-.546 4.89 4.89 0 0 1 1.428-.196c.663 0 1.251.103 1.764.308.523.196.994.476 1.414.84l-.476.784zm5.916 7.728a4.59 4.59 0 0 1-.252.112 4.324 4.324 0 0 1-.84.266 2.715 2.715 0 0 1-.56.056c-.205 0-.401-.028-.588-.084a1.436 1.436 0 0 1-.49-.252 1.348 1.348 0 0 1-.462-1.064v-5.222h-1.008v-.756h1.008v-2.464h.952v2.464h1.68v.756h-1.68v4.956c.019.27.112.471.28.602.178.121.378.182.602.182.27 0 .509-.042.714-.126a3.55 3.55 0 0 0 .392-.196l.252.77zm4.12.49a3.53 3.53 0 0 1-1.456-.294 3.758 3.758 0 0 1-1.148-.826 3.781 3.781 0 0 1-.742-1.204 3.954 3.954 0 0 1-.266-1.442c0-.513.089-.999.266-1.456a3.99 3.99 0 0 1 .756-1.204c.327-.345.71-.62 1.148-.826a3.36 3.36 0 0 1 1.442-.308c.523 0 1.003.103 1.442.308.448.205.83.48 1.148.826.327.345.579.747.756 1.204.187.457.28.943.28 1.456 0 .504-.089.985-.266 1.442-.177.457-.43.859-.756 1.204-.317.345-.7.62-1.148.826a3.53 3.53 0 0 1-1.456.294zm-2.646-3.752c0 .41.07.793.21 1.148.14.345.327.653.56.924.243.261.523.467.84.616.327.15.672.224 1.036.224a2.37 2.37 0 0 0 1.022-.224 2.87 2.87 0 0 0 .854-.63 3.09 3.09 0 0 0 .784-2.086c0-.401-.07-.78-.21-1.134a2.88 2.88 0 0 0-.574-.938 2.57 2.57 0 0 0-.854-.63 2.253 2.253 0 0 0-1.022-.238c-.364 0-.705.08-1.022.238-.317.15-.597.36-.84.63s-.434.588-.574.952c-.14.355-.21.737-.21 1.148zm11.504-2.842c-.644.019-1.204.196-1.68.532a2.683 2.683 0 0 0-1.008 1.386V30h-.952v-7.294h.896v1.75c.27-.56.635-.999 1.092-1.316a2.531 2.531 0 0 1 1.47-.476c.075 0 .135.005.182.014v.868zm4.05 6.594a3.627 3.627 0 0 1-1.47-.294 3.756 3.756 0 0 1-1.149-.826 4.027 4.027 0 0 1-.77-1.218 4.029 4.029 0 0 1-.266-1.47c0-.513.089-.994.266-1.442.187-.457.439-.854.756-1.19a3.526 3.526 0 0 1 1.162-.812 3.453 3.453 0 0 1 1.456-.308c.532 0 1.017.103 1.456.308.448.196.831.467 1.148.812a3.83 3.83 0 0 1 1.008 2.618v.224a.537.537 0 0 1-.014.154h-6.244c.028.392.117.756.266 1.092.159.327.36.611.602.854.243.243.518.434.826.574a2.62 2.62 0 0 0 1.708.098 2.83 2.83 0 0 0 .644-.266 2.51 2.51 0 0 0 .532-.406c.159-.168.28-.35.364-.546l.826.224c-.112.27-.27.518-.476.742a3.616 3.616 0 0 1-.714.574c-.27.159-.57.28-.896.364-.327.093-.667.14-1.022.14zm2.687-4.172a2.795 2.795 0 0 0-.28-1.064 2.714 2.714 0 0 0-.588-.84 2.503 2.503 0 0 0-.826-.546 2.518 2.518 0 0 0-.994-.196 2.663 2.663 0 0 0-1.848.742 2.847 2.847 0 0 0-.574.84c-.14.327-.224.681-.252 1.064h5.362z"/></symbol><symbol viewBox="0 0 38 62" id="battery" xmlns="http://www.w3.org/2000/svg"><path d="M33.302 61H5.365C2.921 61 1 59 1 56.454V12.818c0-2.545 1.92-4.545 4.365-4.545h27.937c2.444 0 4.365 2 4.365 4.545v43.636C37.667 59 35.746 61 33.302 61zM5.365 10.09c-1.397 0-2.619 1.274-2.619 2.728v43.636c0 1.455 1.222 2.728 2.62 2.728h27.936c1.396 0 2.619-1.273 2.619-2.728V12.818c0-1.454-1.223-2.727-2.62-2.727H5.366z" stroke-width=".1"/><path d="M25.096 10.09h-11.35c-.524 0-.873-.363-.873-.908V1.909c0-.545.35-.909.873-.909h11.35c.523 0 .872.364.872.91v7.272c0 .545-.523.909-.872.909zM14.619 8.274h9.604V2.818h-9.604v5.455z" stroke-width=".1"/><path d="M29.81 53.545H8.858c-.524 0-.873-.363-.873-.909 0-.545.35-.909.873-.909H29.81c.524 0 .873.364.873.91 0 .545-.349.908-.873.908zm0-9.091H8.858c-.524 0-.873-.363-.873-.909 0-.545.35-.909.873-.909H29.81c.524 0 .873.364.873.91 0 .545-.349.908-.873.908zm0-9.09H8.858c-.524 0-.873-.364-.873-.91 0-.545.35-.909.873-.909H29.81c.524 0 .873.364.873.91 0 .545-.349.909-.873.909zm0-10.441H8.858c-.524 0-.873-.363-.873-.909 0-.545.35-.909.873-.909H29.81c.524 0 .873.364.873.91 0 .545-.349.908-.873.908z" fill="currentColor" class="color-path" stroke="currentColor" stroke-width=".2"/></symbol><symbol viewBox="0 0 18.164 13.922" id="check" xmlns="http://www.w3.org/2000/svg"><path d="M17.836 3.516L9.352 12l-1.594 1.594a1.136 1.136 0 0 1-1.594 0L4.57 12 .328 7.758a1.136 1.136 0 0 1 0-1.594L1.922 4.57a1.136 1.136 0 0 1 1.594 0l3.445 3.457L14.649.328a1.132 1.132 0 0 1 1.593 0l1.594 1.594a1.136 1.136 0 0 1 0 1.594z"/></symbol><symbol viewBox="0 0 79 60" id="cloud" xmlns="http://www.w3.org/2000/svg"><path d="M77.9 40.5c0-2.3-.4-4.5-1.2-6.7-.2-.4-.5-.8-.9-1-.4-.2-.9-.2-1.4 0-.4.2-.8.5-1 .9-.2.4-.2.9 0 1.4 3 7.7-.9 16.3-8.6 19.3-1.4.6-3 .9-4.6 1H18.5c-.2 0-.2 0-.3-.1-7.7-.7-13.5-7.1-13.5-14.8 0-8.2 6.7-14.9 14.8-14.9h.6c.5 0 1-.2 1.3-.5.4-.4.5-.8.5-1.3V23c0-10.2 8.3-18.4 18.5-18.4 6.9 0 13.2 3.8 16.3 9.9.5.9 1.5 1.2 2.4.7.9-.5 1.2-1.5.7-2.4C56 5.5 48.5 1 40.3 1c-11.4 0-21.1 8.9-22 20.2l-.1.8-.8.1C8.2 23.1 1 31.2 1 40.5c0 9.3 6.9 17.2 16.1 18.3h.2c.3.1.5.1.7.1h42.9c9.5-.7 17-8.8 17-18.4z" /><path d="M71.5 13.3c-3.5 0-6.3 2.8-6.3 6.3 0 .8.2 1.6.5 2.4l.3.6-18.5 18.5-14-13.9c-.2-.3-.4-.4-.7-.6-.6-.3-1.4-.1-1.9.3v.1h-.1L13.5 44.3c-.3.3-.5.8-.5 1.3s.2.9.5 1.3c.7.7 1.8.7 2.5 0l16.1-16.1 14.1 14.1c.7.7 1.8.7 2.5 0l19.8-19.7.6.3c.7.3 1.6.5 2.4.5 3.5 0 6.3-2.8 6.3-6.3.1-3.5-2.8-6.4-6.3-6.4zm0 9.1c-1.5 0-2.7-1.2-2.7-2.7 0-1.5 1.2-2.7 2.7-2.7 1.5 0 2.7 1.2 2.7 2.7s-1.1 2.7-2.7 2.7z" fill="currentColor" class="color-path"/></symbol><symbol  viewBox="0 0 60 60" id="communication" xmlns="http://www.w3.org/2000/svg"><path d="M21.144 44.85c3.788 1.472 6.54 3.973 8.416 7.646 1.877-3.655 4.629-6.21 8.488-7.682-2.555-2.04-3.877-4.613-3.77-7.806.09-2.537 1.09-4.702 2.948-6.44 3.681-3.442 9.31-3.407 12.92.053 2.055 1.987 3.038 4.418 2.895 7.256-.143 2.856-1.465 5.127-3.753 6.937 2.824 1.1 5.093 2.75 6.844 5.092 1.895 2.519 2.895 5.34 2.949 8.48.018 1.135-.447 1.614-1.608 1.614H1.648C.433 60-.05 59.521.004 58.332.326 52.088 3.471 47.76 9.1 45.115c.125-.07.268-.106.41-.177a.978.978 0 0 0 .233-.142c-2.841-2.324-4.128-5.269-3.592-8.906.34-2.342 1.52-4.276 3.342-5.784 3.788-3.104 9.381-2.696 12.777.852 3.037 3.123 4.145 9.456-1.126 13.891zm6.951 12.453c-.5-5.34-5.379-10.75-12.866-10.68-7.094.071-11.99 5.323-12.437 10.68h25.303zm2.93-.017h25.286c-.429-4.932-4.968-10.929-13.206-10.645-6.254.213-11.615 4.737-12.08 10.645zM15.462 30.692c-3.699 0-6.7 2.945-6.737 6.617-.035 3.673 3.038 6.724 6.737 6.707 3.681-.018 6.72-3.052 6.72-6.671-.019-3.655-3.02-6.653-6.72-6.653zm28.18 0c-3.68.018-6.7 3.016-6.7 6.653.017 3.637 3.055 6.653 6.718 6.67 3.717 0 6.773-3.051 6.737-6.723a6.703 6.703 0 0 0-6.754-6.6zM29.525 0h16.26c1.52 0 1.913.373 1.913 1.88v17.564c0 1.49-.393 1.88-1.912 1.88-3.074 0-6.13-.017-9.203.018-.465 0-.983.196-1.358.48-1.43 1.064-2.788 2.2-4.2 3.3-.91.727-1.393.709-2.287 0-1.393-1.1-2.77-2.254-4.2-3.318-.374-.266-.893-.462-1.357-.462-3.342-.035-6.666-.017-10.007-.017-1.322 0-1.77-.426-1.77-1.739V1.756c0-1.33.43-1.756 1.77-1.756h16.35zm.375 22.602c1.519-1.189 2.913-2.342 4.36-3.406.393-.284.965-.497 1.447-.497 2.77-.053 5.54-.018 8.31-.018h.947V2.75h-30.79v15.93c3.2 0 6.309.036 9.436-.018.929-.017 1.644.231 2.34.834 1.27 1.03 2.61 2.04 3.95 3.105z"/><path d="M28.13 11.603c1.591-1.615 3.003-3.016 4.397-4.418.554-.55 1.161-.71 1.84-.248.661.461.787 1.313.179 1.933a258.668 258.668 0 0 1-5.432 5.394c-.572.55-1.251.532-1.841-.018-.93-.87-1.84-1.774-2.716-2.697-.554-.585-.5-1.295.018-1.827.518-.514 1.233-.532 1.84-.018.322.266.608.568.894.87.286.301.5.62.822 1.029z" fill="currentColor" class="color-path"/></symbol><symbol viewBox="0 0 22.012 17.295" id="envelope" xmlns="http://www.w3.org/2000/svg"><path d="M19.911 5.331c-1.916 1.327-3.845 2.653-5.748 3.992-.799.553-2.15 1.683-3.145 1.683h-.025c-.995 0-2.346-1.13-3.145-1.683-1.903-1.339-3.831-2.665-5.735-3.992C1.241 4.741 0 3.354 0 2.235 0 1.032.651 0 1.965 0h18.082c1.068 0 1.965.884 1.965 1.965 0 1.376-1.02 2.617-2.101 3.366zm2.101 9.999c0 1.08-.885 1.965-1.965 1.965H1.965A1.971 1.971 0 0 1 0 15.33V5.577c.369.405.786.762 1.241 1.069 2.039 1.388 4.103 2.776 6.104 4.237 1.032.762 2.31 1.695 3.648 1.695h.025c1.339 0 2.616-.934 3.647-1.695 2.003-1.449 4.066-2.85 6.117-4.237a7.28 7.28 0 0 0 1.229-1.069v9.753z"/></symbol><symbol  viewBox="0 0 117 33" id="google-play" xmlns="http://www.w3.org/2000/svg"><path d="M6.081 2.486c-1.216-.648-2.432-.648-3.649 0l13.379 12.487 4.46-4.54L6.08 2.485zM.486 3.622A3.766 3.766 0 0 0 0 5.486v23.109c0 .648.162 1.216.486 1.783l13.298-13.946L.486 3.622zm25.136 10.54l-4.379-2.432-5.027 4.946 6.081 5.594 3.325-1.784a3.628 3.628 0 0 0 1.946-3.243c0-1.216-.73-2.432-1.946-3.08zm-10.217 3.243L1.622 31.513a3.975 3.975 0 0 0 3.81 0l15.65-8.675-5.677-5.433zM38.588 7.96c0-.597.103-1.19.308-1.778.215-.597.523-1.13.924-1.596a4.62 4.62 0 0 1 1.484-1.134c.588-.299 1.255-.448 2.002-.448.887 0 1.643.2 2.268.602a3.65 3.65 0 0 1 1.4 1.568l-.77.476a2.868 2.868 0 0 0-.588-.826 3.097 3.097 0 0 0-.728-.546 2.928 2.928 0 0 0-.812-.294 3.627 3.627 0 0 0-.826-.098c-.597 0-1.125.121-1.582.364-.457.243-.845.56-1.162.952a4.218 4.218 0 0 0-.7 1.33c-.159.485-.238.98-.238 1.484 0 .55.093 1.078.28 1.582.196.504.457.952.784 1.344.336.383.728.69 1.176.924.457.224.952.336 1.484.336.28 0 .565-.033.854-.098a3.539 3.539 0 0 0 1.624-.91c.233-.233.43-.513.588-.84l.812.42a3.12 3.12 0 0 1-.672.994 4.54 4.54 0 0 1-.966.714 4.789 4.789 0 0 1-1.134.448c-.392.103-.78.154-1.162.154-.681 0-1.307-.15-1.876-.448a4.973 4.973 0 0 1-1.47-1.162 5.66 5.66 0 0 1-.966-1.638 5.452 5.452 0 0 1-.336-1.876zm14.386-2.254h1.064L51.28 9.234 54.276 13h-1.064l-2.576-3.332H49.6V13h-.938V5.706h.938v3.22h.952l2.422-3.22zm4.22 7.434a2.73 2.73 0 0 1-.966-.168 2.641 2.641 0 0 1-.77-.49 2.258 2.258 0 0 1-.503-.714 2.23 2.23 0 0 1-.182-.896 1.8 1.8 0 0 1 .223-.882c.15-.27.36-.504.63-.7.271-.196.593-.345.967-.448a4.275 4.275 0 0 1 1.231-.168c.374 0 .752.033 1.135.098.382.065.723.159 1.021.28v-.658c0-.644-.181-1.153-.545-1.526-.364-.383-.869-.574-1.513-.574-.373 0-.755.075-1.147.224-.392.15-.79.364-1.19.644l-.337-.63c.943-.635 1.858-.952 2.745-.952.914 0 1.633.257 2.155.77.523.513.784 1.223.784 2.128v3.29c0 .261.117.392.35.392V13c-.158.028-.28.042-.363.042-.243 0-.434-.06-.575-.182-.13-.121-.2-.29-.21-.504l-.028-.574a3.29 3.29 0 0 1-1.273 1.008 3.86 3.86 0 0 1-1.639.35zm.224-.728c.495 0 .948-.093 1.358-.28.42-.187.738-.434.952-.742a.797.797 0 0 0 .182-.266.685.685 0 0 0 .07-.28v-1.19a5.79 5.79 0 0 0-2.03-.378c-.672 0-1.218.14-1.638.42-.42.28-.63.649-.63 1.106 0 .224.042.434.127.63.093.196.214.369.364.518.158.14.345.252.56.336.214.084.443.126.686.126zM67.61 13h-.952V9.962a4.12 4.12 0 0 1-.756.21 7.324 7.324 0 0 1-1.022.056c-.439 0-.807-.065-1.106-.196a1.966 1.966 0 0 1-.714-.532 2.086 2.086 0 0 1-.406-.798 4.458 4.458 0 0 1-.112-1.022V5.706h.938v1.806c0 .69.136 1.18.406 1.47.27.28.658.42 1.162.42.392 0 .724-.037.994-.112.27-.084.476-.182.616-.294v-3.29h.952V13zm3.955.14a2.73 2.73 0 0 1-.966-.168 2.641 2.641 0 0 1-.77-.49 2.254 2.254 0 0 1-.504-.714 2.23 2.23 0 0 1-.182-.896c0-.317.074-.611.224-.882.149-.27.359-.504.63-.7a2.97 2.97 0 0 1 .966-.448 4.274 4.274 0 0 1 1.232-.168c.373 0 .751.033 1.134.098.382.065.723.159 1.022.28v-.658c0-.644-.182-1.153-.546-1.526-.364-.383-.868-.574-1.512-.574-.374 0-.756.075-1.148.224-.392.15-.789.364-1.19.644l-.336-.63c.942-.635 1.857-.952 2.744-.952.914 0 1.633.257 2.156.77.522.513.784 1.223.784 2.128v3.29c0 .261.116.392.35.392V13a2.27 2.27 0 0 1-.364.042c-.243 0-.434-.06-.574-.182-.131-.121-.201-.29-.21-.504l-.028-.574a3.292 3.292 0 0 1-1.274 1.008c-.504.233-1.05.35-1.638.35zm.224-.728c.494 0 .947-.093 1.358-.28.42-.187.737-.434.952-.742a.797.797 0 0 0 .182-.266.685.685 0 0 0 .07-.28v-1.19a5.792 5.792 0 0 0-2.03-.378c-.672 0-1.218.14-1.638.42-.42.28-.63.649-.63 1.106 0 .224.042.434.126.63.093.196.214.369.364.518.158.14.345.252.56.336.214.084.443.126.686.126zm8.11.588h-.925V6.532h-2.562v-.826h6.048v.826h-2.562V13zm3.914-7.294h.938v2.59h1.582a2.9 2.9 0 0 1 .952.154c.299.103.56.252.784.448.224.196.401.443.532.742.13.29.196.625.196 1.008s-.065.723-.196 1.022c-.13.29-.308.532-.532.728a2.324 2.324 0 0 1-.784.448 2.907 2.907 0 0 1-.952.154h-2.52V5.706zm2.52 6.482c.485 0 .859-.135 1.12-.406.27-.28.406-.658.406-1.134 0-.476-.135-.85-.406-1.12-.27-.28-.644-.42-1.12-.42H84.75v3.08h1.582zm6.984-2.856c0-.513.088-.999.266-1.456.177-.457.424-.854.742-1.19a3.527 3.527 0 0 1 1.162-.812 3.663 3.663 0 0 1 1.483-.294c.691 0 1.293.159 1.806.476.514.308.901.728 1.162 1.26l-.924.294a2.158 2.158 0 0 0-.868-.868 2.353 2.353 0 0 0-1.218-.322c-.373 0-.723.075-1.05.224a2.739 2.739 0 0 0-1.4 1.526c-.13.355-.196.742-.196 1.162 0 .41.07.798.21 1.162.14.364.332.681.575.952.242.261.522.471.84.63a2.464 2.464 0 0 0 1.721.126 2.81 2.81 0 0 0 .645-.266 2.46 2.46 0 0 0 .503-.406c.14-.15.238-.308.294-.476l.939.28a2.488 2.488 0 0 1-.448.728 3.32 3.32 0 0 1-.7.574c-.262.159-.556.28-.882.364-.318.093-.65.14-.994.14a3.627 3.627 0 0 1-1.47-.294 3.709 3.709 0 0 1-1.162-.826 4.031 4.031 0 0 1-.77-1.218 4.03 4.03 0 0 1-.266-1.47zM46.428 27.544c-.924 1.017-1.988 1.526-3.192 1.526a4.05 4.05 0 0 1-1.862-.434 5.014 5.014 0 0 1-1.47-1.148 5.518 5.518 0 0 1-.966-1.61 5.147 5.147 0 0 1-.35-1.862c0-.663.112-1.297.336-1.904a5.105 5.105 0 0 1 .966-1.596 4.57 4.57 0 0 1 1.456-1.106c.56-.28 1.171-.42 1.834-.42.485 0 .929.056 1.33.168.401.103.756.252 1.064.448.317.187.588.415.812.686.233.261.43.55.588.868l-.756.504c-.327-.616-.751-1.069-1.274-1.358-.523-.29-1.115-.434-1.778-.434a3.2 3.2 0 0 0-1.498.35 3.653 3.653 0 0 0-1.134.938 4.235 4.235 0 0 0-.714 1.33 4.756 4.756 0 0 0-.252 1.54c0 .56.093 1.092.28 1.596.196.504.462.947.798 1.33.336.373.728.672 1.176.896.457.224.952.336 1.484.336.57 0 1.11-.13 1.624-.392.523-.27 1.022-.695 1.498-1.274V24.87h-2.212v-.756h3.038V29h-.826v-1.456zm5.752 1.596a3.53 3.53 0 0 1-1.456-.294 3.757 3.757 0 0 1-1.148-.826 3.78 3.78 0 0 1-.742-1.204 3.954 3.954 0 0 1-.267-1.442 4 4 0 0 1 .267-1.456 3.99 3.99 0 0 1 .755-1.204c.327-.345.71-.62 1.148-.826a3.36 3.36 0 0 1 1.442-.308 3.36 3.36 0 0 1 1.442.308c.448.205.831.48 1.148.826.327.345.58.747.757 1.204.186.457.28.943.28 1.456 0 .504-.09.985-.267 1.442a3.645 3.645 0 0 1-.756 1.204c-.317.345-.7.62-1.148.826a3.53 3.53 0 0 1-1.456.294zm-2.647-3.752c0 .41.07.793.21 1.148.14.345.327.653.56.924.243.261.523.467.84.616.327.15.672.224 1.036.224a2.37 2.37 0 0 0 1.023-.224 2.86 2.86 0 0 0 .854-.63 3.09 3.09 0 0 0 .784-2.086c0-.401-.07-.78-.21-1.134a2.88 2.88 0 0 0-.575-.938 2.572 2.572 0 0 0-.853-.63 2.253 2.253 0 0 0-1.023-.238c-.364 0-.704.08-1.022.238-.317.15-.597.36-.84.63a3.05 3.05 0 0 0-.574.952c-.14.355-.21.737-.21 1.148zm10.973 3.752a3.53 3.53 0 0 1-1.456-.294 3.756 3.756 0 0 1-1.148-.826 3.778 3.778 0 0 1-.742-1.204 3.952 3.952 0 0 1-.266-1.442c0-.513.088-.999.266-1.456.186-.457.438-.859.756-1.204.326-.345.709-.62 1.148-.826a3.36 3.36 0 0 1 1.442-.308 3.36 3.36 0 0 1 1.442.308c.448.205.83.48 1.148.826.326.345.578.747.756 1.204.186.457.28.943.28 1.456 0 .504-.089.985-.266 1.442-.178.457-.43.859-.756 1.204-.318.345-.7.62-1.148.826a3.53 3.53 0 0 1-1.456.294zm-2.646-3.752c0 .41.07.793.21 1.148.14.345.326.653.56.924a2.7 2.7 0 0 0 .84.616c.326.15.672.224 1.036.224a2.37 2.37 0 0 0 1.022-.224 2.86 2.86 0 0 0 .854-.63 3.093 3.093 0 0 0 .784-2.086c0-.401-.07-.78-.21-1.134a2.881 2.881 0 0 0-.574-.938 2.573 2.573 0 0 0-.854-.63 2.254 2.254 0 0 0-1.022-.238c-.364 0-.705.08-1.022.238-.318.15-.598.36-.84.63a3.05 3.05 0 0 0-.574.952c-.14.355-.21.737-.21 1.148zm10.79 3.71c-.504 0-.966-.103-1.386-.308a3.78 3.78 0 0 1-1.078-.84 3.89 3.89 0 0 1-.7-1.19 3.916 3.916 0 0 1-.252-1.386c0-.504.08-.985.238-1.442.168-.467.401-.873.7-1.218.299-.345.653-.62 1.064-.826.42-.205.882-.308 1.386-.308.625 0 1.166.159 1.624.476.457.308.85.7 1.176 1.176v-1.526h.854v7.322c0 .504-.098.947-.294 1.33a2.748 2.748 0 0 1-.77.98 3.195 3.195 0 0 1-1.134.588c-.43.13-.887.196-1.372.196-.84 0-1.517-.15-2.03-.448a3.58 3.58 0 0 1-1.246-1.204l.588-.462c.29.467.672.807 1.148 1.022.476.224.99.336 1.54.336.355 0 .69-.051 1.008-.154.317-.093.593-.238.826-.434.242-.187.434-.43.574-.728.14-.29.21-.63.21-1.022v-1.442a3.04 3.04 0 0 1-1.148 1.106c-.486.27-.994.406-1.526.406zm.266-.798c.28 0 .555-.051.826-.154a2.76 2.76 0 0 0 1.288-.994 1.79 1.79 0 0 0 .294-.658V24.24a2.916 2.916 0 0 0-1.75-1.68 2.202 2.202 0 0 0-.77-.14c-.41 0-.78.089-1.106.266a2.568 2.568 0 0 0-.812.672c-.224.28-.397.597-.518.952a3.56 3.56 0 0 0-.168 1.078 3.093 3.093 0 0 0 .784 2.058c.252.261.541.471.868.63.326.15.681.224 1.064.224zm5.504-9.52h.952v8.568c0 .27.075.485.224.644.15.15.36.224.63.224a2.4 2.4 0 0 0 .756-.154l.168.77a3.133 3.133 0 0 1-.658.182c-.252.047-.471.07-.658.07-.439 0-.784-.121-1.036-.364-.252-.252-.378-.602-.378-1.05v-8.89zm6.923 10.36a3.627 3.627 0 0 1-1.47-.294 3.756 3.756 0 0 1-1.148-.826 4.027 4.027 0 0 1-.77-1.218 4.029 4.029 0 0 1-.266-1.47c0-.513.088-.994.266-1.442a3.79 3.79 0 0 1 .756-1.19 3.526 3.526 0 0 1 1.162-.812 3.453 3.453 0 0 1 1.456-.308c.532 0 1.017.103 1.456.308.448.196.83.467 1.148.812a3.845 3.845 0 0 1 1.008 2.618v.224a.565.565 0 0 1-.014.154h-6.244c.028.392.116.756.266 1.092.158.327.359.611.602.854.242.243.518.434.826.574a2.62 2.62 0 0 0 1.708.098 2.83 2.83 0 0 0 .644-.266 2.51 2.51 0 0 0 .532-.406c.158-.168.28-.35.364-.546l.826.224c-.112.27-.271.518-.476.742a3.635 3.635 0 0 1-.714.574c-.271.159-.57.28-.896.364a3.72 3.72 0 0 1-1.022.14zm2.688-4.172a2.802 2.802 0 0 0-.28-1.064 2.721 2.721 0 0 0-.588-.84 2.503 2.503 0 0 0-.826-.546 2.518 2.518 0 0 0-.994-.196 2.663 2.663 0 0 0-1.848.742 2.847 2.847 0 0 0-.574.84c-.14.327-.224.681-.252 1.064h5.362zM90.174 29v-9.94h4.116c.43 0 .821.093 1.176.28.364.177.676.415.938.714.261.29.466.62.616.994.15.373.224.751.224 1.134 0 .41-.07.807-.21 1.19a3.22 3.22 0 0 1-.588.994 2.93 2.93 0 0 1-.91.7 2.506 2.506 0 0 1-1.162.266h-3.22V29h-.98zm.98-4.536h3.178c.29 0 .55-.06.784-.182a2.03 2.03 0 0 0 .616-.504c.168-.215.298-.457.392-.728.093-.28.14-.57.14-.868 0-.308-.056-.597-.168-.868a2.187 2.187 0 0 0-.434-.728 1.812 1.812 0 0 0-.644-.476 1.7 1.7 0 0 0-.77-.182h-3.094v4.536zm7.575-5.684h.952v8.568c0 .27.074.485.224.644.149.15.359.224.63.224a2.42 2.42 0 0 0 .756-.154l.168.77a3.153 3.153 0 0 1-.658.182c-.252.047-.472.07-.658.07-.439 0-.784-.121-1.036-.364-.252-.252-.378-.602-.378-1.05v-8.89zm5.606 10.36c-.345 0-.667-.056-.966-.168a2.645 2.645 0 0 1-.77-.49 2.277 2.277 0 0 1-.504-.714 2.235 2.235 0 0 1-.182-.896 1.8 1.8 0 0 1 .224-.882c.15-.27.36-.504.63-.7a2.99 2.99 0 0 1 .966-.448 4.278 4.278 0 0 1 1.232-.168c.374 0 .752.033 1.134.098.383.065.724.159 1.022.28v-.658c0-.644-.182-1.153-.546-1.526-.364-.383-.868-.574-1.512-.574-.373 0-.756.075-1.148.224a5.55 5.55 0 0 0-1.19.644l-.336-.63c.943-.635 1.858-.952 2.744-.952.915 0 1.634.257 2.156.77.523.513.784 1.223.784 2.128v3.29c0 .261.117.392.35.392V29c-.158.028-.28.042-.364.042-.242 0-.434-.06-.574-.182-.13-.121-.2-.29-.21-.504l-.028-.574a3.29 3.29 0 0 1-1.274 1.008c-.504.233-1.05.35-1.638.35zm.224-.728a3.24 3.24 0 0 0 1.358-.28c.42-.187.738-.434.952-.742a.793.793 0 0 0 .182-.266.68.68 0 0 0 .07-.28v-1.19a5.766 5.766 0 0 0-2.03-.378c-.672 0-1.218.14-1.638.42-.42.28-.63.649-.63 1.106 0 .224.042.434.126.63.094.196.215.369.364.518a1.876 1.876 0 0 0 1.246.462zm5.813 2.828c.075.01.145.014.21.014.075.01.145.014.21.014a.891.891 0 0 0 .392-.07c.103-.047.201-.15.294-.308a4.53 4.53 0 0 0 .308-.686c.122-.299.29-.7.504-1.204l-3.178-7.294h.98l2.702 6.412 2.506-6.412h.91l-3.78 9.408c-.102.27-.275.504-.518.7-.233.205-.555.308-.966.308a2.5 2.5 0 0 1-.266-.014c-.084 0-.186-.01-.308-.028v-.84z"/></symbol><symbol id="groups" viewBox="0 0 53 53" xml:space="preserve" xmlns="http://www.w3.org/2000/svg"><style>.ist0{fill:#fff}</style><path class="ist0" d="M21 50c-.1 0-.3 0-.4-.1-.4-.2-10.2-5-15.9-16.2C-1 22.5.1 7.3.1 6.6c0-.5.4-.9.9-.9.1 0 5.9-.3 10-1 3.9-.9 9.4-4.5 9.4-4.5.3-.2.8-.2 1.1 0 .1 0 5.5 3.6 9.5 4.6 4 .6 9.9 1 9.9 1 .5 0 .9.4.9.9 0 .2.4 4.8-.2 10.8-.1.5-.5 1-1.1.9-.5-.1-1-.5-.9-1.1.4-4.3.4-8 .3-9.6-1.8-.1-6.1-.4-9.3-1-3.6-.9-8.1-3.6-9.6-4.5-1.5 1-6 3.6-9.6 4.5-3.3.5-7.6.9-9.4 1-.1 3.3-.2 15.9 4.4 25.1 4.7 9.3 12.6 14 14.5 15.1.9-.5 3.2-1.9 5.8-4.2.4-.4 1-.3 1.4.1.4.4.3 1-.1 1.4-3.7 3.2-6.6 4.7-6.7 4.7 0 .1-.1.1-.3.1z"/><path class="ist0" d="M37 14.2c-.3-.2-.8-.2-1.1 0 0 0-.1 0-.1.1-.1.1-.3.2-.5.3-.4.3-1.1.6-1.8 1-1.5.8-3.3 1.6-4.7 2-1.6.2-3.5.4-5 .6-.8.1-1.4.1-1.9.1h-.7c-.5 0-.9.4-.9.9l1 .1-1-.1v2c0 1.3 0 3.1.2 5.1.3 4.1 1.2 9.4 3.5 13.8s5.4 7.6 7.9 9.6c1.3 1 2.4 1.8 3.2 2.3.4.2.7.4 1 .6.1.1.2.1.3.1h.1l.4-.9-.4.9c.3.1.6.1.9 0l-.9-.7.4.9h.1c.1 0 .2-.1.3-.1.2-.1.5-.3.9-.6.8-.5 1.9-1.2 3.1-2.3 2.5-2 5.6-5.2 8-9.6 2.3-4.4 3.2-9.7 3.5-13.8.2-2.1.2-3.8.2-5.1v-2l-1 .1 1-.1c0-.5-.4-.9-.9-.9h-.8c-.5 0-1.1-.1-1.9-.1-1.5-.1-3.4-.3-5-.6-1.5-.4-3.3-1.2-4.7-2-.7-.4-1.4-.8-1.8-1-.2-.1-.4-.2-.5-.3-.2-.3-.3-.3-.4-.3zm14 6.1v1.1c0 1.2 0 2.9-.2 4.9-.3 4-1.2 8.9-3.3 13-2.2 4.1-5.1 7.1-7.5 9-1.2 1-2.2 1.7-2.9 2.1-.3.2-.5.3-.7.4-.2-.1-.4-.2-.7-.4-.7-.5-1.8-1.1-3-2.1-2.4-1.9-5.3-4.8-7.4-9-2.1-4.1-2.9-9.1-3.3-13-.2-2-.2-3.7-.2-4.9v-1.1c.5 0 1.1-.1 1.8-.1 1.6-.1 3.5-.3 5.2-.6h.1c1.7-.4 3.7-1.4 5.2-2.2.8-.4 1.4-.8 1.9-1.1.1 0 .1-.1.2-.1s.1.1.2.1c.5.3 1.1.7 1.9 1.1 1.5.8 3.5 1.8 5.2 2.2h.1c1.6.3 3.6.5 5.2.6 1.1.1 1.7.1 2.2.1z"/><path d="M37.1 21.2s.1 0 .1.1c.1 0 .2.1.3.2.3.2.7.4 1.1.6.9.5 1.9 1 2.8 1.2.9.2 2.1.3 3 .3.5 0 .9.1 1.2.1h.4c.5 0 .9.4.9.9l-1 .1 1-.1v1.3c0 .8 0 1.9-.1 3.2-.2 2.6-.7 5.9-2.2 8.7-1.5 2.8-3.4 4.8-5 6.1-.8.6-1.5 1.1-2 1.4-.2.2-.5.3-.6.4-.1 0-.1.1-.2.1l-.4-.9-.4.9s-.1-.1-.2-.1c-.1-.1-.4-.2-.6-.4-.5-.3-1.2-.8-2-1.4-1.6-1.3-3.5-3.3-4.9-6.1-1.4-2.8-2-6.2-2.2-8.7-.1-1.2-.1-2.3-.1-3.1v-1.3l1 .1-1-.1c0-.5.4-.9.9-.9h.4c.3 0 .7 0 1.2-.1.9-.1 2.1-.2 3-.3.8-.2 1.9-.7 2.8-1.2.4-.2.8-.5 1.1-.6.1-.1.2-.2.3-.2 0 0 .1 0 .1-.1.5-.4.9-.4 1.3-.1zM28 25.7v.3c0 .8 0 1.8.1 3 .2 2.5.7 5.5 2 8s3 4.3 4.4 5.4c.7.6 1.3 1 1.8 1.3.1.1.2.1.2.1.1 0 .1-.1.2-.1.4-.3 1.1-.7 1.8-1.3 1.4-1.2 3.1-3 4.5-5.5 1.3-2.5 1.8-5.5 2-8 .1-1.2.1-2.3.1-3v-.3c-.2 0-.5 0-.8-.1-1-.1-2.2-.2-3.2-.4H41c-1.1-.3-2.4-.9-3.3-1.4-.4-.2-.8-.5-1.1-.6-.3.2-.7.4-1.1.6-.9.5-2.2 1.1-3.3 1.4h-.1c-1 .2-2.3.3-3.2.4-.4.1-.7.2-.9.2zM36.5 45l-.4.9c.3.1.6.1.9 0l-.5-.9z" fill="currentColor" class="color-path"/></symbol><symbol id="hand" viewBox="0 0 55 64" xml:space="preserve" xmlns="http://www.w3.org/2000/svg"><style>.jst1{fill:#ff9736}</style><path d="M20.9 63.7c-5.1 0-10.7-2.7-14.7-7.1-4.8-5.3-6.8-12.2-5.4-19 .9-4.5 2-9 3-13.4l.1-.4 1.5-6.3c.4-1.7.9-2.8 1.9-3.6 1.1-1 2.6-1.3 3.7-1.4 1.3-.1 2.6.3 3.6 1.3.9.9 1.5 2.2 1.5 3.4 0 1.3-.2 2.5-.4 3.4-.1.4-.2.8-.3 1.1-.2.6-.3 1.1-.4 1.6-.2.9-.4 1.9-.7 2.9l.1-.1c.5-.4.9-1.1 1.3-1.8l.1-.2c3.8-6.6 7.6-13.2 11.3-19.7.1-.2.3-.4.4-.6.2-.3.3-.6.5-.8.9-1.3 2-2.2 3.3-2.6 1.3-.4 2.8-.2 4 .5 1 .6 1.8 1.5 2.2 2.6.2-.3.5-.6.8-.9.8-.7 1.7-1.1 2.7-1.2 1.1-.2 2-.1 2.8.2.9.3 1.7.9 2.4 1.8.8 1.2 1.1 2.6.9 4 .3-.1.6-.1.9-.1 1 0 2.1.3 3 .9 1.9 1.4 2.7 3.6 2.1 5.7-.2.7-.5 1.5-1 2.2-.6 1-1.8 3.2-4.1 7 1.2-.2 2.5 0 3.6.7 2.3 1.5 3.1 4.5 1.8 7-.7 1.4-1.5 2.8-2.3 4.2-1 1.8-2.1 3.6-3.1 5.4l-.2.4c-2.2 3.8-4.5 7.8-6.7 11.8-2.1 3.8-4.8 6.7-8.1 8.5-3.2 1.8-7 2.7-11.3 2.7-.1-.1-.5-.1-.8-.1zm-9.5-49.2h-.2c-1.3.1-2.1.4-2.6.9-.6.5-1 1.3-1.2 2.6-.5 2.2-1 4.3-1.5 6.5l-.1.3c-1 4.4-2.1 8.9-3 13.3-1.3 6.1.5 12.4 4.9 17.2 4 4.3 9.4 6.8 14.2 6.4 4 .1 7.4-.7 10.3-2.4 3-1.7 5.4-4.3 7.3-7.7 2.2-4 4.5-8 6.7-11.8l.1-.2c1.1-1.8 2.1-3.7 3.2-5.6.8-1.4 1.6-2.7 2.3-4.1.8-1.5.3-3.4-1.1-4.4-1.3-.8-3-.6-4.2.7-.2.4-.9 1.6-3.6 6l-2.5 4.2c-.4.6-1.5 2.3-1.5 2.3-.3.3-.7.2-1 0-.5-.3-.6-.9-.4-1.4.9-1.5 3.4-5.7 6-10.2l.1-.1c2.8-4.8 6-10.2 7-11.9.3-.6.6-1.2.8-1.8.4-1.3-.1-2.7-1.3-3.5-.6-.4-1.2-.6-1.8-.6-.5 0-1.1.2-1.6.6-.7 1.1-4.4 7.4-7.3 12.5l-.4.3c-4 6.9-5 8.6-5.3 9.1l-.1.1c-.1.1-.1.1-.1.2-.4.3-.9.4-1.3 0-.4-.3-.5-.8-.3-1.3.1-.1 3.1-5.5 6.4-11.2l2.5-4.4c2.2-3.8 3.9-6.7 3.9-6.8.7-1.4.7-2.7-.1-3.9-.4-.6-.9-.9-1.4-1.1-.5-.2-1.1-.2-1.9-.1-.7.1-1.2.4-1.7.8s-.8.9-1.1 1.4c-.2.3-3 5.4-5.7 10.4l-.4.7c-3 5.5-5.8 10.6-5.9 10.9-.3.5-.9.6-1.4.4-.4-.2-.5-.5-.5-.9 0 0 .4-1 .8-1.6.3-.5.6-1.2 1-2l9.2-16.9c.4-1.6-.2-3-1.5-3.8-.8-.5-1.7-.6-2.5-.3S30 3.1 29.4 4c-.1.2-.3.5-.4.7-.2.3-.3.5-.4.7C25 12 21.3 18.7 17.5 25.3l-.1.1c-.5.9-1 1.7-1.7 2.3-.4.3-.8.5-1.1.6-.4.1-.8 0-1.2-.2-.5-.3-.8-.6-.9-1-.1-.4-.2-.8 0-1.3.3-.9.5-1.8.7-2.7.1-.6.3-1.1.4-1.7l.3-1.2c.2-.8.4-1.8.4-2.9 0-.8-.4-1.5-.9-2.1-.8-.5-1.4-.7-2-.7zm41.3 15.8zm.4-1.3z"/><path class="jst1" d="M13.9 32.4c3-1.8 6.8-1.4 9.4.9 2.9 2.6 3.6 6.9 1.5 10.3-.1.1-.1.2-.2.3 1 1.3 1.9 2.6 2.9 4 .3.3.4.7.3 1.1-.1.4-.2.9-.3 1.4.6.1 1.1.2 1.6.2.5.1.7.3.6.8-.1.5-.2 1-.3 1.6.5.1 1.1.2 1.6.2.6.1.7.3.6.8-.1.9-.3 1.8-.4 2.7-.1.5-.3.7-.8.6-.9-.1-1.7-.3-2.6-.4-.3 0-.5-.2-.7-.4-2.2-3-4.4-6-6.6-9.1-.1-.2-.3-.3-.5-.2-3.4.9-7.1-.6-8.8-3.5-1.9-3.1-1.5-7 .9-9.7.2-.2.8-.8 1.1-1 .2-.2.7-.6.7-.6zm9.8 12c-.3-.4-.3-.5 0-1 1.7-2.3 1.8-5.4.3-7.8-2.4-3.8-7.7-4.3-10.8-1.2-2.3 2.3-2.7 5.8-1 8.6 1.6 2.7 5 3.9 8 3 .6-.2.6-.1 1 .3 2.2 3.1 4.4 6.1 6.6 9.2.1.1.2.2.2.3l2.1.3c.1-.7.2-1.3.3-1.9-.5-.1-1-.1-1.5-.2-.6-.1-.7-.3-.6-.8.1-.5.2-1 .3-1.6-.5-.1-1-.1-1.5-.2-.6-.1-.7-.3-.6-.8.1-.5.2-1.1.3-1.6v-.3c-.7-.9-2.9-4-3.1-4.3z" fill="currentColor"/><path class="jst1" d="M14.5 34.6c.9-.7 2.3-.5 3 .5.7 1 .5 2.3-.5 3-1 .7-2.3.5-3-.5-.6-1-.4-2.3.5-3zm.7.9c-.5.3-.6 1-.3 1.5s1 .6 1.5.2c.5-.3.6-1 .2-1.5-.3-.5-1-.6-1.4-.2zm3 7c-.3.2-.6.4-.8.6-.2-.3-.4-.6-.6-.8.3-.2.5-.4.8-.6.2.2.4.5.6.8zm1.8-1.3c-.3.2-.6.4-.8.6-.2-.3-.4-.6-.6-.8.3-.2.6-.4.8-.6.2.2.4.5.6.8zm.3-1.5c.3-.2.6-.4.8-.6.2.3.4.5.6.8-.3.2-.5.4-.8.6-.2-.2-.4-.5-.6-.8zm-.5 3c.1 0 .1-.1.1-.1.2-.2.5-.3.7-.5l.6.9c-.3.2-.6.4-.8.6l-.6-.9z" fill="currentColor"/></symbol><symbol  viewBox="0 0 49 51" id="home" xmlns="http://www.w3.org/2000/svg"><path fill-rule="evenodd" clip-rule="evenodd" d="M32.484 5.81l-6.74-5.3a2.312 2.312 0 0 0-1.52-.51 2.295 2.295 0 0 0-1.42.515L1.186 17.485a2.447 2.447 0 0 0-.936 1.917v28.27c0 .675.317 1.269.726 1.678.41.41 1.004.727 1.678.727h23.608a1 1 0 0 0 .998-1.062.986.986 0 0 0 .002-.063V30.665a1 1 0 0 1 1-1h7.066a1 1 0 0 1 1 1v18.287c0 .021 0 .042.002.062a1 1 0 0 0 .998 1.062h8.626c.678 0 1.27-.339 1.667-.736.398-.398.737-.99.737-1.667V19.399l-.002-.032a2.659 2.659 0 0 0-.958-1.857l-.014-.012-.015-.012-3.663-2.865V1.427c0-.772-.64-1.413-1.413-1.413h-8.396c-.772 0-1.413.64-1.413 1.413V5.81zm5.844 42.267h7.626s.027 0 .08-.026a.638.638 0 0 0 .173-.125.64.64 0 0 0 .125-.173c.026-.053.026-.08.026-.08V19.47a.668.668 0 0 0-.24-.423l-4.028-3.151-.384-.3V2.013h-7.222v7.913l-1.618-1.272-8.368-6.58-.011-.008-.011-.01A.317.317 0 0 0 24.268 2a.422.422 0 0 0-.13.023c-.033.011-.046.022-.046.022l-.018.016-.02.015L2.418 19.06l-.008.006a.449.449 0 0 0-.16.336v28.27c0 .042.027.15.14.264.114.113.222.14.264.14h22.608v-17.41a3 3 0 0 1 3-3h7.066a3 3 0 0 1 3 3v17.412z"/><path fill-rule="evenodd" clip-rule="evenodd" d="M9.547 27.05a2.75 2.75 0 0 1 2.75-2.75h6.144a2.75 2.75 0 0 1 2.75 2.75v6.143a2.75 2.75 0 0 1-2.75 2.75h-6.144a2.75 2.75 0 0 1-2.75-2.75V27.05zm2.75-1.25c-.69 0-1.25.56-1.25 1.25v6.143c0 .69.56 1.25 1.25 1.25h6.144c.69 0 1.25-.56 1.25-1.25V27.05c0-.69-.56-1.25-1.25-1.25h-6.144zm22 16.25v-4h1v4h-1z" fill="currentColor" class="color-path"/></symbol><symbol  viewBox="0 0 38 62" id="mobile-app" xmlns="http://www.w3.org/2000/svg"><path d="M.838 38.279V54.28c0 3.721 3.057 6.72 6.768 6.72H31.04c3.749 0 6.769-3.034 6.769-6.719V7.755c0-3.72-3.057-6.719-6.768-6.719h-4.986V1h-.8c-.582 0-1.238.036-1.674 0H7.606C5.06 1 3.276 2.445 2.184 3.71l-.691 1.372L.91 6.455C.8 6.925.8 7.213.8 7.61v19.146c-.036.18-.072 1.48-.036 2.275H.8v9.249h.037zM35.989 9.742H2.694h33.295zm-33.295 0V7.755c0-2.71 2.22-4.913 4.949-4.913h23.434c2.73 0 4.949 2.204 4.949 4.913v1.987H2.694zm33.295 1.842v35.978H2.694V11.584h33.295zm-33.295 0h33.295H2.694zm0 37.82h33.295v4.913c0 2.71-2.22 4.913-4.948 4.913H7.606c-2.729 0-4.949-2.203-4.949-4.913v-4.912h.037z" stroke-width=".2"/><path d="M24.636 53.378H14.011v1.842h10.625v-1.842zm-17.94-43.6v39.627h25.29V9.778H6.697zm23.435 37.82H8.552V11.62h21.579v35.978z" stroke-width=".2"/><path fill="currentColor" class="color-path" d="M11.75 20h3v3h-3zm6 0h3v3h-3zm6 0h3v3h-3zm-12 6h3v3h-3zm6 0h3v3h-3zm6 0h3v3h-3zm-12 6h3v3h-3zm6 0h3v3h-3zm6 0h3v3h-3z"/></symbol><symbol  viewBox="0 0 38 62" id="set-mobile" xmlns="http://www.w3.org/2000/svg"><path d="M.588 38.279V54.28c0 3.721 3.057 6.72 6.768 6.72H30.79c3.749 0 6.769-3.034 6.769-6.719V7.755c0-3.72-3.057-6.719-6.768-6.719h-4.986V1h-.8c-.582 0-1.238.036-1.674 0H7.356C4.81 1 3.026 2.445 1.934 3.71l-.691 1.372L.66 6.455c-.11.47-.11.758-.11 1.155v19.146c-.036.18-.072 1.48-.036 2.275H.55v9.249h.037zM35.739 9.742H2.444h33.295zm-33.295 0V7.755c0-2.71 2.22-4.913 4.949-4.913h23.434c2.73 0 4.949 2.204 4.949 4.913v1.987H2.444zm33.295 1.842v35.978H2.444V11.584h33.295zm-33.295 0h33.295H2.444zm0 37.82h33.295v4.913c0 2.71-2.22 4.913-4.948 4.913H7.356c-2.729 0-4.949-2.203-4.949-4.913v-4.912h.037z" stroke-width=".2"/><path d="M24.386 53.378H13.761v1.842h10.625v-1.842zm-17.94-43.6v39.627h25.29V9.778H6.447zm23.435 37.82H8.302V11.62h21.579v35.978z" stroke-width=".2"/><path d="M13.592 25.686l-.78-.226a.846.846 0 0 0-.754.11c-.234.14-.402.377-.466.643l-.515 2.129c-.142.574.171 1.163.704 1.319l.78.226c.105.028.183.14.196.239.067.743.25 1.444.525 2.131a.315.315 0 0 1-.051.336l-.57.615a1.125 1.125 0 0 0 .003 1.514l1.46 1.573a.939.939 0 0 0 1.403.003l.57-.614c.078-.084.195-.098.312-.056a5.76 5.76 0 0 0 1.977.566c.117.014.195.099.221.21l.21.842c.144.575.691.913 1.224.76l1.974-.555a.994.994 0 0 0 .596-.503c.13-.252.168-.546.103-.813l-.21-.84a.306.306 0 0 1 .103-.309 6.71 6.71 0 0 0 .791-.712c.234-.252.454-.546.648-.84a.262.262 0 0 1 .286-.11l.793.212a.85.85 0 0 0 .754-.11 1.05 1.05 0 0 0 .466-.644l.515-2.128c.142-.574-.171-1.164-.705-1.32l-.78-.226c-.104-.028-.182-.14-.196-.238a7.507 7.507 0 0 0-.524-2.132.315.315 0 0 1 .05-.336l.571-.615a1.125 1.125 0 0 0-.003-1.513l-1.446-1.56a.939.939 0 0 0-1.404-.003l-.57.615c-.078.084-.195.098-.312.055a5.763 5.763 0 0 0-1.977-.566c-.117-.014-.195-.098-.221-.21l-.21-.842c-.145-.574-.691-.912-1.224-.76l-1.974.556a.993.993 0 0 0-.597.503 1.18 1.18 0 0 0-.102.812l.21.841a.306.306 0 0 1-.103.308 6.3 6.3 0 0 0-.778.699 6.612 6.612 0 0 0-.648.839c-.104.112-.221.153-.325.125zm-.18.756c.403.128.831-.053 1.064-.417.169-.266.363-.504.584-.741.22-.238.44-.447.687-.63.35-.264.492-.726.387-1.147l-.21-.841a.337.337 0 0 1 .026-.224.369.369 0 0 1 .156-.14l1.974-.555c.143-.042.286.056.325.21l.21.842c.105.42.457.744.873.801a5.211 5.211 0 0 1 1.742.509.934.934 0 0 0 1.13-.207l.571-.615a.239.239 0 0 1 .364 0l1.446 1.56a.286.286 0 0 1 .001.392l-.57.615a1.126 1.126 0 0 0-.192 1.219c.248.603.405 1.22.472 1.879.026.252.13.477.3.66a.948.948 0 0 0 .443.28l.767.213a.292.292 0 0 1 .196.35l-.515 2.13c-.013.07-.065.125-.13.167a.22.22 0 0 1-.208.027l-.78-.226c-.403-.127-.832.054-1.065.418a5.238 5.238 0 0 1-.583.74c-.207.224-.44.448-.687.63-.35.265-.492.727-.388 1.147l.21.842a.339.339 0 0 1-.025.224.37.37 0 0 1-.156.14l-1.974.555c-.143.041-.286-.057-.325-.211l-.21-.841a1.068 1.068 0 0 0-.873-.802 5.21 5.21 0 0 1-1.743-.509.975.975 0 0 0-1.13.208l-.57.615a.239.239 0 0 1-.364-.001l-1.447-1.56a.286.286 0 0 1 0-.392l.57-.615c.285-.307.375-.798.192-1.218a6.621 6.621 0 0 1-.472-1.88 1.097 1.097 0 0 0-.743-.94l-.78-.226a.293.293 0 0 1-.196-.351l.515-2.129c.013-.07.065-.126.13-.167a.219.219 0 0 1 .207-.028l.794.24z" fill="currentColor" class="color-path"/><path d="M17.012 29.5c0-1.17.883-2.121 1.968-2.121.255 0 .504.052.74.155.107.048.228-.008.272-.123.044-.115-.009-.248-.115-.293a2.192 2.192 0 0 0-.897-.19c-1.315 0-2.386 1.154-2.386 2.572 0 .32.055.633.161.93a.208.208 0 0 0 .195.145.18.18 0 0 0 .075-.016.232.232 0 0 0 .12-.29 2.27 2.27 0 0 1-.133-.769zm3.878-1.147c-.106.05-.154.182-.106.297.109.269.165.555.165.85 0 1.17-.882 2.121-1.967 2.121-.284 0-.56-.065-.818-.191a.204.204 0 0 0-.278.11.235.235 0 0 0 .103.3c.311.153.646.232.99.232 1.316 0 2.386-1.154 2.386-2.572a2.71 2.71 0 0 0-.2-1.032.202.202 0 0 0-.274-.115zm-3.493 2.533c-.115 0-.209.102-.209.226 0 .124.094.225.21.225.114 0 .208-.101.208-.225s-.094-.226-.209-.226zm3.103-2.842c.115 0 .209-.102.209-.226 0-.123-.094-.225-.21-.225-.114 0-.208.102-.208.226 0 .123.094.225.209.225z" fill="currentColor" class="color-path"/></symbol><symbol  viewBox="0 0 60 59" id="montage" xmlns="http://www.w3.org/2000/svg"><path fill-rule="evenodd" clip-rule="evenodd" d="M16.584 31.257l4.079 5.711 3.464 5.312 3.98-2.986L37.978 53H7V39.775l9.584-8.518zM23.92 43.7L13.437 52h22.587l-4.926-6.842-1.582.91-1.98-.991-1.64 1.093-1.976-2.47zm6.59.642l-2.618-3.637-3.18 2.384 1.392 1.74 1.36-.907 2.02 1.01 1.026-.59zM11.826 52l11.506-9.109-3.164-4.852-1.637 1.637-1.989-1.657-3.042 3.245v-3.43h-2.81L8 40.223V52h3.826zm-.01-15.167H14.5v1.903l1.958-2.089 2.011 1.677 1.128-1.128-3.18-4.453-4.602 4.09zM45.5 37a1.5 1.5 0 0 1 1.5-1.5h7.5v18h-9V37zm1.5-.5a.5.5 0 0 0-.5.5v15.5h7v-16H47z" fill="currentColor" class="color-path"/><path fill-rule="evenodd" clip-rule="evenodd" d="M39.5 45a1.5 1.5 0 0 1 1.5-1.5h5.5v10h-7V45zm1.5-.5a.5.5 0 0 0-.5.5v7.5h5v-8H41z" fill="currentColor" class="color-path"/><path fill-rule="evenodd" clip-rule="evenodd" d="M0 13h60v46H0V13zm2 2v42h56V15H2z"/><path fill-rule="evenodd" clip-rule="evenodd" d="M6 18h49v36H6V18zm2 2v32h45V20H8zM29.808.778a1 1 0 0 1 1.385.001l13 12.5a1 1 0 1 1-1.386 1.442L30.499 2.887a726.353 726.353 0 0 0-6.896 6.712 214.503 214.503 0 0 0-3.324 3.344c-.436.451-.79.829-1.046 1.114a8.856 8.856 0 0 0-.29.339c-.043.053-.062.08-.067.086a1 1 0 0 1-1.77-.93 2.53 2.53 0 0 1 .276-.408c.098-.122.221-.264.36-.42.28-.313.655-.712 1.098-1.17.886-.918 2.068-2.103 3.357-3.378 2.58-2.55 5.609-5.48 7.611-7.398z"/><path fill-rule="evenodd" clip-rule="evenodd" d="M40 32a3 3 0 1 0 0-6 3 3 0 0 0 0 6zm0 1a4 4 0 1 0 0-8 4 4 0 0 0 0 8z" fill="currentColor" class="color-path"/></symbol><symbol  viewBox="0 0 55 55" id="power" xmlns="http://www.w3.org/2000/svg"><path fill-rule="evenodd" clip-rule="evenodd" d="M15.66 4.301C6.53 7.569 0 16.296 0 26.549c0 13.047 10.577 23.624 23.624 23.624 2.06 0 4.06-.264 5.969-.761a1.5 1.5 0 0 0-.756-2.904 20.62 20.62 0 0 1-5.213.665C12.234 47.173 3 37.939 3 26.549c0-8.567 5.223-15.914 12.66-19.03V4.3zm15.928 3.218c7.436 3.116 12.66 10.463 12.66 19.03 0 .773-.043 1.536-.125 2.287a1.5 1.5 0 1 0 2.982.328 24.04 24.04 0 0 0 .143-2.615c0-10.253-6.531-18.98-15.66-22.248v3.218z"/><rect x="22.739" width="2.655" height="21.239" rx="1.327"/><path fill-rule="evenodd" clip-rule="evenodd" d="M41.673 54c6.627 0 12-5.373 12-12s-5.373-12-12-12c-6.628 0-12 5.373-12 12s5.372 12 12 12zm0 1c7.18 0 13-5.82 13-13s-5.82-13-13-13-13 5.82-13 13 5.82 13 13 13z" fill="currentColor" class="color-path"/><path d="M41.11 48.022a1.14 1.14 0 0 1-.718-.31l-5.018-4.682a1.163 1.163 0 0 1-.06-1.63 1.163 1.163 0 0 1 1.63-.06l4.102 3.826 6.528-8.317a1.154 1.154 0 1 1 1.815 1.427l-7.309 9.3a1.159 1.159 0 0 1-.818.438.396.396 0 0 1-.151.008z" fill="currentColor" class="color-path"/></symbol><symbol  viewBox="0 0 61 59" id="signal" xmlns="http://www.w3.org/2000/svg"><path fill-rule="evenodd" clip-rule="evenodd" d="M30.175 24.205c-1.41 0-2.508-1.16-2.508-2.534 0-1.375 1.098-2.534 2.508-2.534s2.508 1.159 2.508 2.534c0 1.375-1.099 2.534-2.508 2.534zM8.566 42.736C-2.782 31.02-2.788 12.196 8.57.601a1.053 1.053 0 0 1 1.504 1.473C-.478 12.846-.484 30.367 10.078 41.271a1.053 1.053 0 0 1-1.512 1.465z" fill="currentColor" class="color-path"/><path fill-rule="evenodd" clip-rule="evenodd" d="M15.293 35.879c-7.746-7.907-7.746-20.635 0-28.542a1.053 1.053 0 1 1 1.504 1.473c-6.944 7.089-6.944 18.507 0 25.595a1.053 1.053 0 0 1-1.504 1.474zm8.114-20.347c-3.233 3.414-3.215 8.868-.013 12.137a1.053 1.053 0 0 1-1.504 1.474c-4.018-4.102-4-10.847-.012-15.058a1.053 1.053 0 0 1 1.529 1.447zM51.97.605c11.347 11.716 11.353 30.54-.005 42.135a1.053 1.053 0 0 1-1.504-1.473C61.013 30.495 61.02 12.974 50.457 2.07A1.053 1.053 0 1 1 51.969.605z" fill="currentColor" class="color-path"/><path fill-rule="evenodd" clip-rule="evenodd" d="M45.242 7.463c7.746 7.907 7.746 20.634 0 28.542a1.053 1.053 0 0 1-1.503-1.474c6.944-7.088 6.944-18.506 0-25.595a1.053 1.053 0 0 1 1.504-1.473zM37.129 27.81c3.232-3.414 3.215-8.869.012-12.138a1.053 1.053 0 1 1 1.504-1.473c4.017 4.101 4 10.847.012 15.058a1.053 1.053 0 0 1-1.528-1.448z" fill="currentColor" class="color-path"/><path d="M30.222 30.614c.059-.33.531-.33.59 0l3.674 20.499a.3.3 0 0 1-.296.353h-7.346a.3.3 0 0 1-.295-.353l3.673-20.5z"/></symbol><symbol  viewBox="0 0 50 68" id="teg" xmlns="http://www.w3.org/2000/svg"><g clip-path="url(#qclip0)"><path fill-rule="evenodd" clip-rule="evenodd" d="M28.71 20.091V3.826a1 1 0 0 0-1-1h-5.132a1 1 0 0 0-1 1v16.265h-2V3.826a3 3 0 0 1 3-3h5.133a3 3 0 0 1 3 3v16.265h-2z" /><path fill-rule="evenodd" clip-rule="evenodd" d="M25.145 65.667c12.56 0 22.744-10.183 22.744-22.745 0-12.56-10.183-22.744-22.744-22.744C12.583 20.178 2.4 30.361 2.4 42.922c0 12.562 10.183 22.745 22.745 22.745zm24.744-22.745c0 13.666-11.079 24.745-24.744 24.745C11.479 67.667.4 56.588.4 42.922c0-13.665 11.079-24.744 24.745-24.744 13.665 0 24.744 11.079 24.744 24.744z"/><path d="M17.57 45.617c-1.231.02-2.18-.343-2.946-1.13-.04-.04-.1-.04-.121 0-.767.787-1.695 1.15-2.946 1.13v.726c-.04 1.937-.08 4.6 2.986 5.73h.06c3.067-1.11 3.027-3.773 2.987-5.73h.12-.12c-.02-.262-.02-.484-.02-.727zm-3.188-1.251a.255.255 0 0 1 .363 0c.767.766 1.675 1.11 2.885 1.069.06 0 .1.04.1.1v.788c.041 1.997.082 4.74-3.086 5.89-.02.02-.06.02-.08.02-.04 0-.061 0-.081-.02-3.168-1.15-3.127-3.893-3.087-5.87v-.807c0-.06.04-.101.08-.101 1.231.04 2.14-.282 2.906-1.07z" fill="currentColor" class="color-path"/><path fill-rule="evenodd" clip-rule="evenodd" d="M14.716 52.347a.235.235 0 0 1-.087.032c-.028.005-.054.005-.064.005h-.008c-.029 0-.09.001-.148-.037-1.612-.592-2.42-1.596-2.814-2.708-.391-1.106-.369-2.313-.349-3.298v-.805c0-.12.087-.25.23-.25h.006c1.196.038 2.06-.273 2.793-1.025v-.001c.16-.16.417-.16.576 0 .734.734 1.6 1.064 2.774 1.025h.005a.25.25 0 0 1 .18.072.25.25 0 0 1 .071.179v.785c.02.995.042 2.207-.349 3.315-.394 1.116-1.203 2.12-2.816 2.711zm2.724-5.997a7.778 7.778 0 0 1-.02-.583c-1.17-.01-2.098-.373-2.857-1.128-.757.755-1.669 1.118-2.856 1.128v.58c-.02.971-.038 2.094.32 3.114.352 1.002 1.07 1.912 2.543 2.462h.007c1.473-.54 2.192-1.445 2.543-2.447.358-1.018.34-2.144.32-3.126z" fill="currentColor" class="color-path"/><path d="M14.745 44.366a.255.255 0 0 0-.363 0c-.767.766-1.675 1.11-2.905 1.069-.04 0-.08.04-.08.1v.808c-.041 1.997-.082 4.72 3.086 5.87.02.02.06.02.08.02.02 0 .061 0 .081-.02 3.188-1.15 3.127-3.893 3.087-5.89h.161c.04 2.037.081 4.842-3.207 6.032-.04.02-.101.02-.142.02-.06 0-.1-.02-.14-.02-3.29-1.19-3.249-4.116-3.209-6.032v-.787c0-.141.121-.263.263-.263 1.19.04 2.057-.302 2.784-1.028a.439.439 0 0 1 .605 0c.726.746 1.574 1.049 2.764 1.029.141 0 .262.12.262.262v.787h-.161v-.787c0-.06-.04-.101-.101-.101-1.19.04-2.098-.282-2.865-1.07z" fill="currentColor" class="color-path"/><path fill-rule="evenodd" clip-rule="evenodd" d="M17.584 46.473h-.023v-.886c-1.2.03-2.134-.307-2.922-1.116a.106.106 0 0 0-.15 0c-.785.784-1.713 1.141-2.943 1.116v.759c-.02 1.003-.038 2.156.332 3.2.366 1.033 1.115 1.967 2.656 2.527l.03.01.03-.01c1.55-.56 2.299-1.499 2.663-2.537.35-.998.346-2.095.327-3.063zm-3.005 5.61zm3.443-5.91v-.637a.417.417 0 0 0-.412-.412h-.003c-1.157.02-1.961-.273-2.653-.984l-.002-.001a.589.589 0 0 0-.817 0c-.695.694-1.52 1.024-2.673.985h-.005a.417.417 0 0 0-.413.412v.785c-.02.955-.042 2.192.364 3.34.41 1.16 1.254 2.224 2.943 2.835l.025.009h.026l.03.006a.492.492 0 0 0 .111.014h.002c.02 0 .051 0 .084-.003a.366.366 0 0 0 .113-.028c1.683-.611 2.526-1.642 2.936-2.787.407-1.134.384-2.373.364-3.387l-.003-.147h-.017z" fill="currentColor" class="color-path"/><path d="M37.534 45.643c-1.23.02-2.179-.343-2.945-1.13-.04-.04-.101-.04-.121 0-.767.787-1.695 1.15-2.946 1.13v.726c-.04 1.937-.08 4.6 2.986 5.73h.06c3.067-1.11 3.027-3.773 2.986-5.73h.121-.12c-.02-.262-.02-.484-.02-.726zm-3.188-1.25a.255.255 0 0 1 .364 0c.766.766 1.674 1.109 2.885 1.068.06 0 .1.04.1.101v.787c.04 1.997.081 4.741-3.086 5.891-.02.02-.06.02-.08.02-.041 0-.062 0-.082-.02-3.167-1.15-3.127-3.894-3.086-5.87v-.808c0-.06.04-.1.08-.1 1.231.04 2.139-.283 2.905-1.07z" fill="currentColor" class="color-path"/><path fill-rule="evenodd" clip-rule="evenodd" d="M34.68 52.374a.237.237 0 0 1-.087.032c-.028.004-.053.004-.064.004h-.008a.247.247 0 0 1-.147-.037c-1.612-.592-2.42-1.595-2.814-2.708-.391-1.106-.37-2.313-.35-3.297v-.806c0-.12.087-.25.231-.25h.005c1.196.039 2.06-.273 2.793-1.024l.002-.002a.404.404 0 0 1 .575 0c.734.734 1.6 1.065 2.774 1.026h.005a.25.25 0 0 1 .179.071.25.25 0 0 1 .072.18v.785c.02.994.042 2.206-.35 3.314-.393 1.116-1.202 2.12-2.816 2.712zm2.724-5.997a7.778 7.778 0 0 1-.02-.583c-1.17-.011-2.098-.374-2.856-1.129-.758.755-1.669 1.118-2.856 1.129v.578c-.02.973-.038 2.096.32 3.115.351 1.003 1.07 1.912 2.543 2.462h.006c1.473-.54 2.192-1.444 2.544-2.447.357-1.018.34-2.144.32-3.125z" fill="currentColor" class="color-path"/><path d="M34.71 44.392a.258.258 0 0 0-.364 0c-.766.767-1.674 1.11-2.905 1.07-.04 0-.08.04-.08.1v.807c-.04 1.998-.081 4.721 3.086 5.871.02.02.06.02.081.02.02 0 .06 0 .08-.02 3.189-1.15 3.128-3.894 3.088-5.891h.161c.04 2.038.08 4.842-3.208 6.032-.04.02-.1.02-.141.02-.06 0-.1-.02-.141-.02-3.289-1.19-3.248-4.115-3.208-6.032v-.787c0-.141.121-.262.262-.262 1.19.04 2.058-.303 2.784-1.029a.439.439 0 0 1 .606 0c.726.746 1.573 1.049 2.764 1.029.14 0 .262.12.262.262v.787h-.162v-.787c0-.06-.04-.1-.1-.1-1.19.04-2.099-.283-2.865-1.07z" fill="currentColor" class="color-path"/><path fill-rule="evenodd" clip-rule="evenodd" d="M37.549 46.5h-.024v-.886c-1.199.03-2.133-.308-2.922-1.116a.106.106 0 0 0-.15 0c-.784.784-1.712 1.14-2.942 1.115v.76c-.02 1.002-.039 2.155.332 3.2.366 1.032 1.115 1.967 2.656 2.526l.03.01.029-.01c1.55-.56 2.3-1.498 2.663-2.536.35-.999.346-2.096.328-3.064zm-3.005 5.61zm3.443-5.91v-.638a.417.417 0 0 0-.412-.412h-.003c-1.158.02-1.962-.272-2.654-.984l-.001-.001a.589.589 0 0 0-.818 0c-.694.694-1.52 1.024-2.673.985h-.005a.417.417 0 0 0-.412.412v.785c-.02.955-.042 2.192.364 3.34.41 1.16 1.254 2.224 2.943 2.835l.024.01h.027l.03.006a.493.493 0 0 0 .111.014h.002c.02 0 .05 0 .084-.004a.364.364 0 0 0 .113-.028c1.682-.61 2.525-1.642 2.936-2.786.406-1.135.384-2.373.364-3.388l-.003-.147h-.017z" fill="currentColor" class="color-path"/><path d="M24.63 59.88a.625.625 0 0 0 .626-.605V42.247l14.667-8.473a.618.618 0 0 0 .222-.827.608.608 0 0 0-.827-.222l-14.586 8.413-14.587-8.413a.57.57 0 0 0-.302-.081c-.202 0-.424.1-.525.303a.618.618 0 0 0 .222.827l14.506 8.372v17.129a.578.578 0 0 0 .585.605z"/><path d="M27.415 33.37h-6.032a2.213 2.213 0 0 1-2.22-2.219c0-1.15.888-2.118 2.038-2.219a3.344 3.344 0 0 1 3.188-2.3c1.19 0 2.3.625 2.905 1.654h.141a2.544 2.544 0 0 1 2.542 2.542c0 .686-.262 1.312-.746 1.796a2.618 2.618 0 0 1-1.816.746zm-3.046-6.314a2.942 2.942 0 0 0-2.845 2.138l-.04.142h-.142a1.826 1.826 0 0 0-1.775 1.815c0 1.009.827 1.816 1.816 1.816h6.032a2.138 2.138 0 0 0 2.138-2.139c0-1.17-.968-2.138-2.138-2.138-.08 0-.141 0-.222.02l-.141.02-.06-.12a2.973 2.973 0 0 0-2.623-1.554z" fill="currentColor" class="color-path"/><path fill-rule="evenodd" clip-rule="evenodd" d="M24.389 26.782a3.194 3.194 0 0 0-3.046 2.198l-.031.093-.098.008a2.086 2.086 0 0 0-1.9 2.07c0 1.148.92 2.07 2.069 2.07h6.032c.625 0 1.233-.246 1.71-.704a2.351 2.351 0 0 0 .702-1.688 2.394 2.394 0 0 0-2.392-2.393h-.227l-.043-.073a3.22 3.22 0 0 0-2.776-1.58zm-3.298 2.011a3.491 3.491 0 0 1 3.298-2.31 3.52 3.52 0 0 1 2.99 1.654h.056a2.695 2.695 0 0 1 2.692 2.692 2.65 2.65 0 0 1-.79 1.901l-.003.002a2.768 2.768 0 0 1-1.92.789h-6.032a2.363 2.363 0 0 1-2.369-2.37c0-1.195.898-2.206 2.078-2.358zm.288.36a3.092 3.092 0 0 1 2.99-2.247c1.143 0 2.203.614 2.754 1.632l.002.004.012.025.027-.004c.095-.023.17-.023.246-.023h.005a2.303 2.303 0 0 1 2.288 2.289 2.287 2.287 0 0 1-2.288 2.288h-6.032a1.971 1.971 0 0 1-1.966-1.966c0-1.048.85-1.944 1.922-1.965h.031l.01-.033zm2.99-1.947a2.792 2.792 0 0 0-2.701 2.03l-.071.25h-.253a1.676 1.676 0 0 0-1.627 1.665c0 .925.759 1.666 1.666 1.666h6.032a1.988 1.988 0 0 0 1.988-1.988 2.003 2.003 0 0 0-1.988-1.989c-.081 0-.125 0-.186.016l-.007.002-.256.036-.108-.215a2.823 2.823 0 0 0-2.49-1.473zm13.325 17.019a.35.35 0 0 1 .043.493l-5.976 7.126a.35.35 0 1 1-.536-.45l5.976-7.126a.35.35 0 0 1 .493-.043z" fill="currentColor" class="color-path"/></g><defs><clipPath id="qclip0"><path transform="rotate(-180 25 33.889)" d="M0 0h50v67.778H0z"/></clipPath></defs></symbol><symbol  viewBox="0 0 68 62" id="set-web" xmlns="http://www.w3.org/2000/svg"><path d="M67 41.368V8.776C67 4.484 63.565 1 59.333 1H8.667C4.435 1 1 4.484 1 8.776v32.592c0 4.292 3.435 7.776 7.667 7.776h24.076v9.306H20.426a1.26 1.26 0 0 0-1.257 1.275A1.26 1.26 0 0 0 20.426 61h27.148a1.26 1.26 0 0 0 1.257-1.275 1.26 1.26 0 0 0-1.257-1.275H35.257v-9.306h24.076c4.232 0 7.667-3.484 7.667-7.776zM3.514 8.776c0-2.875 2.318-5.226 5.153-5.226h50.68c2.835 0 5.153 2.35 5.153 5.226v27.876H3.514V8.776zm5.153 37.819c-2.835 0-5.153-2.351-5.153-5.227v-2.167h60.972v2.167c0 2.876-2.318 5.227-5.153 5.227H8.667z" stroke-width=".2"/><path d="M26.208 14.825l-1.197-.333a1.343 1.343 0 0 0-1.155.162 1.528 1.528 0 0 0-.716.946l-.79 3.13c-.216.844.264 1.711 1.082 1.94l1.196.332c.16.042.28.207.3.352.102 1.092.384 2.123.805 3.134.08.165.04.37-.08.494l-.874.905a1.605 1.605 0 0 0 .006 2.225l2.237 2.314c.6.62 1.556.622 2.152.005l.875-.904c.12-.124.299-.144.478-.082a9.122 9.122 0 0 0 3.031.832c.18.021.3.145.34.31l.322 1.238c.22.845 1.059 1.342 1.876 1.117l3.027-.816c.398-.123.716-.37.915-.74.198-.37.257-.803.156-1.195l-.322-1.237a.44.44 0 0 1 .159-.453 10.28 10.28 0 0 0 1.213-1.048c.358-.37.696-.802.993-1.233a.41.41 0 0 1 .438-.164l1.217.312a1.34 1.34 0 0 0 1.155-.162c.359-.205.597-.534.716-.946l.79-3.13c.216-.844-.264-1.711-1.082-1.94l-1.196-.333a.444.444 0 0 1-.3-.35c-.102-1.093-.384-2.124-.805-3.135a.449.449 0 0 1 .079-.494l.875-.905a1.605 1.605 0 0 0-.006-2.225l-2.217-2.293a1.48 1.48 0 0 0-2.152-.005l-.875.904c-.12.123-.299.143-.478.081a9.124 9.124 0 0 0-3.031-.832.39.39 0 0 1-.34-.31l-.322-1.237c-.22-.845-1.06-1.342-1.876-1.118l-3.027.817c-.398.123-.716.37-.915.74-.198.37-.257.803-.156 1.194l.322 1.237a.44.44 0 0 1-.159.453 9.61 9.61 0 0 0-1.193 1.028c-.358.37-.696.802-.994 1.233-.159.165-.338.226-.497.185zm-.277 1.112c.618.187 1.275-.08 1.633-.614.258-.391.556-.74.894-1.09a7.4 7.4 0 0 1 1.054-.925c.537-.39.755-1.07.594-1.688l-.322-1.237a.478.478 0 0 1 .04-.33.56.56 0 0 1 .238-.205l3.027-.817c.22-.061.439.084.499.31l.322 1.238c.16.618.7 1.094 1.338 1.178.917.085 1.814.355 2.672.748.599.29 1.276.168 1.733-.304l.875-.905a.377.377 0 0 1 .558.002l2.217 2.293c.16.165.16.412.002.577l-.875.904a1.603 1.603 0 0 0-.295 1.792 9.41 9.41 0 0 1 .724 2.763c.041.371.201.701.461.97.18.186.42.351.679.414l1.176.312c.22.062.36.29.3.516l-.79 3.13c-.02.103-.099.185-.198.246-.1.062-.2.082-.319.04l-1.196-.332c-.619-.187-1.276.08-1.633.614a7.745 7.745 0 0 1-.894 1.09 7.632 7.632 0 0 1-1.054.925 1.591 1.591 0 0 0-.594 1.688l.322 1.237c.02.103.02.227-.04.33a.56.56 0 0 1-.238.205l-3.027.817c-.22.06-.439-.084-.5-.31l-.32-1.238a1.613 1.613 0 0 0-1.339-1.178c-.917-.085-1.814-.355-2.672-.748-.579-.27-1.296-.148-1.733.304l-.875.905a.377.377 0 0 1-.558-.002L25.6 27.27a.408.408 0 0 1-.002-.577l.875-.904a1.632 1.632 0 0 0 .295-1.792 9.415 9.415 0 0 1-.724-2.763 1.627 1.627 0 0 0-1.14-1.384l-1.196-.332a.428.428 0 0 1-.3-.516l.79-3.13c.019-.104.099-.186.198-.247a.348.348 0 0 1 .319-.04l1.216.353z" fill="currentColor" class="color-path"/><path d="M31.453 20.433c0-1.72 1.352-3.119 3.016-3.119a2.9 2.9 0 0 1 1.135.229c.163.07.35-.013.417-.182a.333.333 0 0 0-.177-.431 3.486 3.486 0 0 0-1.375-.279c-2.016 0-3.658 1.697-3.658 3.782 0 .471.084.932.247 1.37.048.132.17.211.298.211a.287.287 0 0 0 .116-.023.335.335 0 0 0 .182-.427 3.216 3.216 0 0 1-.201-1.13zm5.946-1.687a.332.332 0 0 0-.163.438c.166.394.253.815.253 1.25 0 1.72-1.353 3.118-3.017 3.118-.436 0-.859-.096-1.253-.281a.318.318 0 0 0-.427.162.338.338 0 0 0 .157.441 3.55 3.55 0 0 0 1.52.341c2.016 0 3.658-1.697 3.658-3.782 0-.527-.103-1.037-.308-1.518a.314.314 0 0 0-.42-.169zm-5.357 3.726a.327.327 0 0 0-.32.331c0 .183.144.332.32.332.177 0 .32-.15.32-.332a.327.327 0 0 0-.32-.331zm4.758-4.18c.176 0 .32-.15.32-.331a.327.327 0 0 0-.32-.332.328.328 0 0 0-.321.332c0 .182.144.331.32.331z" fill="currentColor" class="color-path"/></symbol></svg>