<svg width="1240" height="690" viewBox="0 0 1240 690" fill="none" xmlns="http://www.w3.org/2000/svg" style="">
<mask id="mask0" mask-type="alpha" maskUnits="userSpaceOnUse" x="0" y="0" width="1240" height="690">
<path width="1240" height="690" fill="white" d="M0 0 L1240 0 L1240 690 L0 690 Z" class="pdePnRmZ_0"></path>
</mask>
<g mask="url(#mask0)">
<path d="M-100 476.979L272 469.216M1340.11 446.928L1183.5 450.196" stroke="black" class="pdePnRmZ_1"></path>
</g>
<g clip-path="url(#clip0)">
<path d="M584.591 464.5C568.973 432.84 562.355 376.182 562.355 281.433C562.355 161.618 572.961 102.717 599.007 78.2976C625.321 53.6101 660.094 53.3417 661.571 53.3417H1098.44C1099.92 53.3417 1134.83 53.6101 1161.01 78.2976C1187.05 102.717 1197.66 161.618 1197.66 281.567C1197.66 401.516 1187.05 460.417 1161.01 484.837C1157.62 488.019 1154.08 490.795 1150.5 493.217M730 509.792H934.5" stroke="black" stroke-miterlimit="10" stroke-linecap="round" stroke-linejoin="round" class="pdePnRmZ_2"></path>
<path d="M595.048 467.5C577.494 438.697 570.008 380.115 570.008 281.433C570.008 166.985 579.943 106.608 604.109 83.9328C628.678 60.8553 661.571 60.9895 661.571 60.9895H1098.44C1098.44 60.9895 1131.34 60.8553 1155.91 83.7986C1180.07 106.608 1190.28 166.985 1190.28 281.433C1190.28 395.881 1180.21 456.392 1156.04 479.067C1154.23 480.765 1152.38 482.336 1150.5 483.792M705.5 502.01H934.5" stroke="black" stroke-miterlimit="10" stroke-linecap="round" stroke-linejoin="round" class="pdePnRmZ_3"></path>
<path d="M833.217 290.866L845.984 256.843H849.622L845.304 268.645L845.303 268.649L834.82 296.497H830.678L820.194 268.645L819.226 268.821V296.497H815.661V256.843H819.514L832.281 290.866L832.749 292.114L833.217 290.866ZM849.837 273.919V296.497H846.272V273.651C846.272 273.277 846.464 272.861 846.797 272.529C847.129 272.196 847.546 272.004 847.92 272.004C848.445 272.004 848.859 272.21 849.178 272.529C849.647 272.997 849.837 273.413 849.837 273.919Z" stroke="black" class="pdePnRmZ_4"></path>
<path d="M878.329 283.808L878.208 283.482H877.86H868.999C868.469 283.482 868.116 283.279 867.954 283.057C867.727 282.592 867.619 282.142 867.619 281.701C867.619 281.327 867.811 280.911 868.144 280.579C868.477 280.247 868.893 280.055 869.268 280.055H876.115H876.839L876.582 279.377L870.272 262.74L869.804 261.506L869.337 262.74L856.57 296.497H853.069L867.736 256.843H871.873L886.54 296.497H883.041L878.329 283.808Z" stroke="black" class="pdePnRmZ_5"></path>
<path d="M893.336 282.506V296.497H889.771V256.843H893.336V274.724V276.282L894.242 275.015L907.25 256.843H911.397L893.428 282.217L893.336 282.347V282.506ZM902.805 277.531L902.811 277.54L902.817 277.549L915.328 296.497H911.154L900.159 280.082C900.159 280.082 900.159 280.082 900.159 280.082C899.958 279.78 899.84 279.346 899.84 278.884C899.84 278.295 899.954 277.871 900.277 277.44C900.586 277.029 900.974 276.834 901.489 276.834C901.837 276.834 902.086 276.892 902.278 276.994C902.468 277.094 902.641 277.257 902.805 277.531Z" stroke="black" class="pdePnRmZ_6"></path>
<path d="M935.5 272.309H926.058C925.789 272.309 925.252 272.309 924.581 272.041C923.909 271.907 923.104 271.504 922.433 271.102C921.761 270.699 921.09 270.028 920.553 269.357C920.016 268.552 919.747 267.747 919.747 266.674C919.747 265.332 920.016 264.259 920.553 263.454C921.09 262.649 921.761 262.112 922.433 261.71C923.238 261.307 923.909 261.173 924.581 261.039C925.252 260.905 925.789 260.905 926.058 260.905H937M935.5 297.131H917.599V292.569H935.5M935.5 276.469H926.058C925.118 276.469 924.044 276.334 922.835 276.066C921.627 275.798 920.419 275.261 919.345 274.456C918.271 273.651 917.331 272.578 916.525 271.37C915.72 270.028 915.317 268.418 915.317 266.406C915.317 263.991 915.72 262.112 916.525 260.905C917.331 259.563 918.271 258.624 919.345 257.953C920.419 257.282 921.627 256.88 922.835 256.745C924.044 256.611 925.118 256.477 926.058 256.343H938.141" stroke="black" class="pdePnRmZ_7"></path>
</g>
<g clip-path="url(#clip1)">
<path d="M1042.5 570.58C1042.5 570.58 977.406 569.87 962.006 561.35C956.406 558.51 934.706 549.28 934.706 501.71C934.706 440.65 935.406 314.98 935.406 275.93C935.406 253.21 946.606 227.65 970.406 222.68C996.305 217 1042.5 217.71 1042.5 217.71C1042.5 217.71 1088.7 217 1114.6 222.68C1138.4 228.36 1149.6 253.21 1149.6 275.93C1149.6 314.98 1150.3 441.36 1150.3 501.71C1150.3 548.57 1128.6 558.51 1123 561.35C1107.6 569.87 1042.5 570.58 1042.5 570.58Z" stroke="black" stroke-miterlimit="10" stroke-linecap="round" stroke-linejoin="round" class="pdePnRmZ_8"></path>
<path d="M1045.01 356C1007.05 356 982.922 350.974 977.5 350C969.065 348.051 968.5 341.5 974.5 340C982.5 338 1045.01 337 1045.01 337C1045.01 337 1107.77 340 1115 340C1120.42 340 1119.5 348.692 1113.5 350C1108.68 350.974 1083.56 356 1045.01 356Z" stroke="black" stroke-miterlimit="10" stroke-linecap="round" stroke-linejoin="round" class="pdePnRmZ_9"></path>
<path d="M1113.9 390.24C1113.9 390.24 1085.25 382 1042.51 382C999.765 382 971.106 390.24 971.106 390.24V505.26H1113.9V390.24Z" stroke="black" stroke-miterlimit="10" stroke-linecap="round" stroke-linejoin="round" class="pdePnRmZ_10"></path>
<path d="M1042.5 517.836C1004.75 517.836 965.592 531.166 957.202 523.76C953.006 520.058 953.006 513.393 953.006 513.393C953.006 513.393 953.006 404.064 953.006 370C959.299 369.259 983.072 380.097 1042.5 380.097C1101.94 380.097 1127.21 368.759 1133.5 369.5C1133.5 403.564 1132 513.393 1132 513.393C1132 513.393 1132 520.798 1127.81 523.76C1119.42 531.166 1080.26 517.836 1042.5 517.836Z" stroke="black" stroke-miterlimit="10" stroke-linecap="round" stroke-linejoin="round" class="pdePnRmZ_11"></path>
<path d="M953.006 370L971.106 390.24" stroke="black" stroke-miterlimit="10" stroke-linecap="round" stroke-linejoin="round" class="pdePnRmZ_12"></path>
<path d="M1133.5 369.5L1113.9 390.24" stroke="black" stroke-miterlimit="10" stroke-linecap="round" stroke-linejoin="round" class="pdePnRmZ_13"></path>
<path d="M1116.7 223.39C1116.7 223.39 1130.7 233.33 1132.8 247.53C1134.9 261.73 1133.5 316.4 1133.5 316.4L1132.1 512.36C1132.1 512.36 1132.1 525.85 1124.4 535.79C1116.7 545.02 1101.3 549.28 1101.3 549.28C1101.3 549.28 1076.1 544.31 1042.5 544.31C1008.91 544.31 983.706 549.28 983.706 549.28C983.706 549.28 969.006 545.02 961.306 535.79C953.606 526.56 953.606 512.36 953.606 512.36L952.206 316.4C952.206 316.4 950.806 261.73 952.906 247.53C955.006 233.33 969.006 223.39 969.006 223.39" stroke="black" stroke-miterlimit="10" stroke-linecap="round" stroke-linejoin="round" class="pdePnRmZ_14"></path>
<path d="M1132.1 514.49C1118.8 514.49 1113.9 504.55 1113.9 504.55C1113.9 504.55 1113.9 522.3 1120.2 525.85" stroke="black" stroke-miterlimit="10" stroke-linecap="round" stroke-linejoin="round" class="pdePnRmZ_15"></path>
<path d="M953.606 514.49C966.906 514.49 971.806 504.55 971.806 504.55C971.806 504.55 971.806 522.3 965.506 525.85" stroke="black" stroke-miterlimit="10" stroke-linecap="round" stroke-linejoin="round" class="pdePnRmZ_16"></path>
<path d="M936.106 268.12C936.106 268.12 939.606 364.68 940.306 403.73C942.406 488.93 936.106 522.3 936.106 522.3" stroke="black" stroke-miterlimit="10" stroke-linecap="round" stroke-linejoin="round" class="pdePnRmZ_17"></path>
<path d="M1132.8 247.53C1132.8 247.53 1130.7 239.72 1111.1 234.75C1091.5 229.78 1057.2 229.78 1042.5 229.78C1027.81 229.78 994.206 229.78 973.906 234.75C954.306 240.43 953.006 247 953.006 247" stroke="black" stroke-miterlimit="10" stroke-linecap="round" stroke-linejoin="round" class="pdePnRmZ_18"></path>
<path d="M1148.9 268.12C1148.9 268.12 1145.4 364.68 1144.7 403.73C1142.6 488.93 1148.9 522.3 1148.9 522.3" stroke="black" stroke-miterlimit="10" stroke-linecap="round" stroke-linejoin="round" class="pdePnRmZ_19"></path>
</g>
<path d="M488 447.496L519.631 445.131C523.697 444.999 526.268 446.116 530.07 447.496L811.287 534.916C811.287 534.916 816.935 536.449 820.671 543.612C823.396 548.847 822.714 557.915 822.714 557.915L821.989 605.513C821.989 609.215 819.923 611.121 816.847 612.062L774.94 619.795C774.94 619.795 761.931 621.196 757.206 620.824C747.976 620.101 734.066 613.749 734.066 613.749L496 514.775" stroke="black" stroke-miterlimit="10" stroke-linecap="round" stroke-linejoin="round" class="pdePnRmZ_20"></path>
<path d="M821.99 592.108L773.315 599.994C773.315 599.994 763.953 600.848 758.767 600.695C750.197 600.476 736.067 595.131 736.067 595.131L496.5 500.15" stroke="black" stroke-miterlimit="10" stroke-linecap="round" stroke-linejoin="round" class="pdePnRmZ_21"></path>
<path d="M767.425 620.496L767.315 561.333C767.315 561.333 767.579 550.863 766.48 546.811C764.613 539.933 754.812 537.195 754.812 537.195L492.207 449.556C491.083 449.148 490.002 448.815 489 448.565" stroke="black" stroke-miterlimit="10" stroke-linecap="round" stroke-linejoin="round" class="pdePnRmZ_22"></path>
<path d="M822.781 556.514L767.425 563.742C767.425 563.742 763.074 564.597 757.295 564.4C751.361 564.202 745.34 561.508 745.34 561.508L497 471.699" stroke="black" stroke-miterlimit="10" stroke-linecap="round" stroke-linejoin="round" class="pdePnRmZ_23"></path>
<path d="M745.318 618.109V561.486C745.318 561.486 745.186 558.135 745.692 551.454C746.527 540.415 757.141 538.027 757.141 538.027C773.381 536.625 806.893 533.515 806.893 533.515" stroke="black" stroke-miterlimit="10" stroke-linecap="round" stroke-linejoin="round" class="pdePnRmZ_24"></path>
<path d="M528.818 447.037C528.818 447.037 507.24 448.492 493 449.5C492.09 449.564 491.069 449.777 490 450.107" stroke="black" stroke-miterlimit="10" stroke-linecap="round" stroke-linejoin="round" class="pdePnRmZ_25"></path>
<path d="M474.895 435.091L474.768 436.796L474.074 439.51L472.874 442.288L471.231 444.94L468.831 447.592L465.926 450.181L462.579 452.643L458.726 454.979L454.368 457.252L449.505 459.335L444.326 461.292L438.642 463.06L432.705 464.639L426.452 466.091L419.884 467.29L412.999 468.301L406.052 469.121L398.915 469.69L391.652 470.132L384.389 470.321L377.125 470.258L369.989 469.942L362.788 469.437L355.778 468.743L348.83 467.796L342.199 466.722L335.883 465.396L329.82 463.881L324.072 462.113L318.641 460.282L313.778 458.262L309.104 456.115L305.125 453.779L301.588 451.38L298.493 448.855L296.093 446.266L294.135 443.551L292.62 440.836L291.862 438.122L291.609 435.722V434.46L291.988 432.25L292.683 429.977L293.63 427.704L294.956 425.494L296.472 423.348L298.43 421.138L300.704 419.054L303.356 417.034L306.135 415.14L309.293 413.246L312.767 411.478L316.367 409.773L320.283 408.195L324.388 406.743L328.62 405.354L333.041 404.154L337.651 402.892L342.515 401.944L347.378 401.061L352.431 400.24L357.546 399.545L362.725 398.977L368.031 398.598L373.399 398.219L378.704 398.03H384.199L389.504 398.093L394.873 398.283L400.178 398.598L405.42 399.103L410.599 399.608L415.715 400.303L420.705 401.124L425.694 402.071L430.431 403.144L434.915 404.281L439.273 405.543L443.505 406.932L447.547 408.447L451.337 409.963L454.81 411.731L458.094 413.435L461.189 415.266L463.842 417.223L466.305 419.181L468.516 421.201L470.347 423.348L471.8 425.431L473 427.578L474.01 429.788L474.516 431.997L474.895 434.207L474.768 435.091" stroke="black" stroke-miterlimit="10" stroke-linecap="round" stroke-linejoin="round" class="pdePnRmZ_26"></path>
<path d="M474.895 432.755C474.895 432.755 476.663 441.847 476.663 444.435C476.663 452.769 465.61 479.16 391.904 482.948C318.199 486.736 293.188 460.219 291.609 448.034C291.167 444.435 291.609 435.091 291.609 435.091" stroke="black" stroke-miterlimit="10" stroke-linecap="round" stroke-linejoin="round" class="pdePnRmZ_27"></path>
<path d="M298.999 499.995C275.314 485.158 271.525 467.101 271.525 467.101" stroke="black" stroke-miterlimit="10" class="pdePnRmZ_28"></path>
<path d="M387.862 519.062C348.199 519.694 321.925 512.496 304.493 503.215" stroke="black" stroke-miterlimit="10" class="pdePnRmZ_29"></path>
<path d="M474.958 498.606C460.558 508.582 436.242 517.231 395.062 518.81" stroke="black" stroke-miterlimit="10" class="pdePnRmZ_30"></path>
<path d="M495.611 464.512C495.611 464.512 497.126 480.802 479.063 495.575" stroke="black" stroke-miterlimit="10" class="pdePnRmZ_31"></path>
<path d="M278.219 535.099C278.219 535.099 278.662 547.095 278.598 548.357C278.219 563.51 317.63 599.308 397.652 596.151C453.737 593.942 493.842 565.025 492.895 543.938C492.768 540.781 492.832 530.679 492.832 530.679" stroke="black" stroke-miterlimit="10" class="pdePnRmZ_32"></path>
<path d="M434.852 476.95V480.802L466.052 491.787C466.052 491.787 469.842 493.808 471.105 494.881C473.631 497.028 477.358 501.195 477.168 501.005L479.316 499.742C479.316 499.742 479.126 491.977 478.052 490.714C476.979 489.451 471.231 485.6 467.947 481.875C462.073 475.119 458.789 467.48 458.789 467.48" stroke="black" stroke-miterlimit="10" class="pdePnRmZ_33"></path>
<path d="M477.168 501.005C477.168 501.005 476.979 493.239 475.905 491.977C474.831 490.714 469.084 486.863 465.8 483.138C459.926 476.382 456.642 468.743 456.642 468.743" stroke="black" stroke-miterlimit="10" class="pdePnRmZ_34"></path>
<path d="M340.683 480.802L340.936 484.59L311.314 497.533C311.314 497.533 307.778 499.806 306.641 500.879C304.304 503.152 300.956 507.445 301.146 507.256L298.999 506.182C298.999 506.182 298.62 498.543 299.567 497.217C300.514 495.891 305.82 491.787 308.788 487.873C314.03 480.865 316.746 473.162 316.746 473.162" stroke="black" stroke-miterlimit="10" class="pdePnRmZ_35"></path>
<path d="M301.146 507.319C301.146 507.319 300.767 499.679 301.714 498.354C302.662 497.028 307.967 492.924 310.935 489.009C316.178 482.001 318.893 474.299 318.893 474.299" stroke="black" stroke-miterlimit="10" class="pdePnRmZ_36"></path>
<path d="M495.611 464.512C495.611 464.512 497 470.7 497 472.152C497 473.604 496.053 518.557 495.926 522.977C495.674 535.477 458.6 576.958 381.168 574.18C310.872 571.655 276.135 542.296 274.24 525.376C273.735 520.767 271.083 472.026 271.019 471.394C270.83 467.101 272.093 463.818 272.093 463.818" stroke="black" stroke-miterlimit="10" class="pdePnRmZ_37"></path>
<path d="M490.305 452.39C490.811 452.517 491.253 452.706 491.632 452.958C493.211 454.032 494.979 459.335 494.979 459.335" stroke="black" stroke-miterlimit="10" class="pdePnRmZ_38"></path>
<path d="M465.989 462.366C465.989 462.366 490.495 461.608 492.895 462.682C495.295 463.755 495.674 464.639 495.674 464.639C495.674 464.639 495.989 460.787 495.042 459.335C494.095 457.883 490.81 457.567 485.063 454.79C479.252 452.075 476.347 447.592 476.347 447.592L476.726 443.551C476.726 443.551 480.263 446.708 482.979 448.855" stroke="black" stroke-miterlimit="10" class="pdePnRmZ_39"></path>
<path d="M277.335 459.335C275.44 460.346 274.051 461.103 273.546 461.545C272.851 462.113 271.904 464.323 271.904 464.323" stroke="black" stroke-miterlimit="10" class="pdePnRmZ_40"></path>
<path d="M310.746 469.437L271.525 471.015C271.525 471.015 271.525 467.101 272.346 466.47C273.167 465.838 278.725 463.944 284.346 460.345C289.525 457.062 292.746 453.59 292.746 453.59L291.609 448.034C291.609 448.034 289.146 451.885 285.609 454.6" stroke="black" stroke-miterlimit="10" class="pdePnRmZ_41"></path>
<path d="M386.915 483.138C386.915 483.138 388.368 523.355 388.747 523.987C389.126 524.555 394.431 524.555 394.62 523.987C394.81 523.418 393.294 482.885 393.294 482.885L386.915 483.138Z" stroke="black" stroke-miterlimit="10" class="pdePnRmZ_42"></path>
<path d="M394.683 523.924C394.683 523.924 396.01 510.223 396.452 507.319C397.336 502.268 399.926 494.818 399.862 490.272C399.799 488.378 399.61 482.506 399.61 482.506" stroke="black" stroke-miterlimit="10" class="pdePnRmZ_43"></path>
<path d="M380.031 482.885C380.031 482.885 378.894 490.272 379.21 491.535C379.526 492.797 383.252 502.773 385.147 507.319C386.347 510.223 388.747 523.924 388.747 523.924" stroke="black" stroke-miterlimit="10" class="pdePnRmZ_44"></path>
<path d="M340.936 484.59C340.936 484.59 351.799 488.252 361.273 489.577C366.578 490.335 379.21 490.84 379.21 490.84" stroke="black" stroke-miterlimit="10" class="pdePnRmZ_45"></path>
<path d="M434.852 480.802C434.852 480.802 429.105 483.011 419.947 485.726C410.789 488.441 399.799 490.335 399.799 490.335" stroke="black" stroke-miterlimit="10" class="pdePnRmZ_46"></path>
<path d="M375.041 419.686L374.915 420.191L375.231 420.696L376.052 421.138L377.189 421.517L378.578 421.706H379.904L381.294 421.517L382.431 421.201L383.252 420.633L383.441 420.128L383.189 419.623L382.557 419.054L381.483 418.676L380.283 418.486L378.768 418.423L377.378 418.549L376.178 418.865L375.357 419.307L375.041 419.686Z" stroke="black" stroke-miterlimit="10" stroke-linecap="round" stroke-linejoin="round" class="pdePnRmZ_47"></path>
<path d="M374.599 414.319L374.536 414.824L374.852 415.266L375.673 415.645L376.81 416.024L378.136 416.15H379.652L380.915 415.961L382.052 415.645L382.81 415.203L383.062 414.761L382.81 414.256L382.241 413.814L381.104 413.498L379.841 413.309H378.389L376.999 413.435L375.736 413.688L374.978 414.067L374.599 414.319Z" stroke="black" stroke-miterlimit="10" stroke-linecap="round" stroke-linejoin="round" class="pdePnRmZ_48"></path>
<path d="M387.483 416.845L387.231 417.287L387.547 417.792L388.368 418.17L389.504 418.549L390.894 418.676H392.347L393.736 418.549L394.873 418.17L395.568 417.792L395.883 417.287L395.694 416.845L394.999 416.339L393.926 416.024L392.725 415.834L391.21 415.771L389.82 415.898L388.62 416.15L387.673 416.529L387.483 416.845Z" stroke="black" stroke-miterlimit="10" stroke-linecap="round" stroke-linejoin="round" class="pdePnRmZ_49"></path>
<path d="M324.009 450.433L329.314 452.075L334.809 453.716L340.683 455.105L346.873 456.242L353.252 457.315L359.946 458.073L366.704 458.704L373.652 459.083L380.599 459.335L387.673 459.272L394.62 459.083L401.505 458.641L408.326 458.009L414.894 457.189L421.273 456.178L427.399 454.916L433.084 453.527L438.578 451.948L443.631 450.244L448.242 448.35L452.41 446.392L456.2 444.246L459.358 442.036L461.884 439.7L464.094 437.301L465.547 434.838L466.494 432.439L466.873 429.914L466.621 427.325L465.8 424.926L464.41 422.401L462.452 420.001L459.989 417.602L456.958 415.392L453.294 413.246L449.252 411.162L444.705 409.268L439.842 407.437L434.473 405.859L428.726 404.407L422.726 403.081L416.347 401.944L409.778 401.061L403.083 400.303L396.199 399.861L389.252 399.545L382.304 399.419L375.231 399.545L368.346 399.861L361.525 400.366L354.83 401.124L348.325 402.071L342.136 403.207L336.136 404.47L330.514 405.985L325.272 407.627L320.409 409.458L315.988 411.415L312.072 413.435L308.662 415.645L305.756 417.918L303.356 420.254L301.525 422.653L300.262 425.115L299.693 427.641L299.567 430.166L300.072 432.629L301.146 435.154L302.851 437.553L305.062 439.952L307.904 442.225L311.188 444.498L314.978 446.519L319.399 448.602L324.009 450.433Z" stroke="black" stroke-miterlimit="10" stroke-linecap="round" stroke-linejoin="round" class="pdePnRmZ_50"></path>
<path d="M495.926 517.61C495.674 530.111 461 569.697 387.231 569.508C316.872 569.382 276.135 537.498 274.24 520.577" stroke="black" stroke-miterlimit="10" class="pdePnRmZ_51"></path>
<path d="M285.609 459.588V453.969C285.609 453.969 285.419 452.075 281.44 452.075C277.461 452.075 277.335 454.789 277.335 454.789V461.292C277.335 461.292 278.282 462.997 279.798 463.06C281.314 463.123 285.609 459.588 285.609 459.588Z" stroke="black" stroke-miterlimit="10" class="pdePnRmZ_52"></path>
<path d="M277.335 454.726C277.335 454.726 278.219 456.242 281.061 456.178C283.904 456.115 285.546 455.484 285.609 453.969" stroke="black" stroke-miterlimit="10" class="pdePnRmZ_53"></path>
<path d="M482.158 449.739C482.031 450.244 483.484 452.011 485.379 453.085C487.274 454.158 489.231 454.789 489.8 454.411C490.368 454.032 490.495 451.064 490.116 450.244C489.737 449.423 489.168 448.539 488.158 447.971C485.568 446.455 482.284 449.107 482.158 449.739Z" stroke="black" stroke-miterlimit="10" class="pdePnRmZ_54"></path>
<defs>
<clipPath id="clip0">
<path width="637.99" height="459" fill="white" transform="translate(561.012 52)" d="M0 0 L637.99 0 L637.99 459 L0 459 Z" class="pdePnRmZ_55"></path>
</clipPath>
<clipPath id="clip1">
<path width="216.997" height="355" fill="white" transform="translate(934.006 217)" d="M0 0 L216.997 0 L216.997 355 L0 355 Z" class="pdePnRmZ_56"></path>
</clipPath>
</defs>
<style data-made-with="vivus-instant">.pdePnRmZ_0{stroke-dasharray:3860 3862;stroke-dashoffset:3861;animation:pdePnRmZ_draw 2000ms linear 0ms forwards;}.pdePnRmZ_1{stroke-dasharray:529 531;stroke-dashoffset:530;animation:pdePnRmZ_draw 2000ms linear 17ms forwards;}.pdePnRmZ_2{stroke-dasharray:1610 1612;stroke-dashoffset:1611;animation:pdePnRmZ_draw 2000ms linear 35ms forwards;}.pdePnRmZ_3{stroke-dasharray:1602 1604;stroke-dashoffset:1603;animation:pdePnRmZ_draw 2000ms linear 53ms forwards;}.pdePnRmZ_4{stroke-dasharray:286 288;stroke-dashoffset:287;animation:pdePnRmZ_draw 2000ms linear 71ms forwards;}.pdePnRmZ_5{stroke-dasharray:189 191;stroke-dashoffset:190;animation:pdePnRmZ_draw 2000ms linear 89ms forwards;}.pdePnRmZ_6{stroke-dasharray:193 195;stroke-dashoffset:194;animation:pdePnRmZ_draw 2000ms linear 107ms forwards;}.pdePnRmZ_7{stroke-dasharray:135 137;stroke-dashoffset:136;animation:pdePnRmZ_draw 2000ms linear 125ms forwards;}.pdePnRmZ_8{stroke-dasharray:1036 1038;stroke-dashoffset:1037;animation:pdePnRmZ_draw 2000ms linear 142ms forwards;}.pdePnRmZ_9{stroke-dasharray:308 310;stroke-dashoffset:309;animation:pdePnRmZ_draw 2000ms linear 160ms forwards;}.pdePnRmZ_10{stroke-dasharray:517 519;stroke-dashoffset:518;animation:pdePnRmZ_draw 2000ms linear 178ms forwards;}.pdePnRmZ_11{stroke-dasharray:666 668;stroke-dashoffset:667;animation:pdePnRmZ_draw 2000ms linear 196ms forwards;}.pdePnRmZ_12{stroke-dasharray:28 30;stroke-dashoffset:29;animation:pdePnRmZ_draw 2000ms linear 214ms forwards;}.pdePnRmZ_13{stroke-dasharray:29 31;stroke-dashoffset:30;animation:pdePnRmZ_draw 2000ms linear 232ms forwards;}.pdePnRmZ_14{stroke-dasharray:812 814;stroke-dashoffset:813;animation:pdePnRmZ_draw 2000ms linear 250ms forwards;}.pdePnRmZ_15{stroke-dasharray:45 47;stroke-dashoffset:46;animation:pdePnRmZ_draw 2000ms linear 267ms forwards;}.pdePnRmZ_16{stroke-dasharray:45 47;stroke-dashoffset:46;animation:pdePnRmZ_draw 2000ms linear 285ms forwards;}.pdePnRmZ_17{stroke-dasharray:255 257;stroke-dashoffset:256;animation:pdePnRmZ_draw 2000ms linear 303ms forwards;}.pdePnRmZ_18{stroke-dasharray:189 191;stroke-dashoffset:190;animation:pdePnRmZ_draw 2000ms linear 321ms forwards;}.pdePnRmZ_19{stroke-dasharray:255 257;stroke-dashoffset:256;animation:pdePnRmZ_draw 2000ms linear 339ms forwards;}.pdePnRmZ_20{stroke-dasharray:764 766;stroke-dashoffset:765;animation:pdePnRmZ_draw 2000ms linear 357ms forwards;}.pdePnRmZ_21{stroke-dasharray:346 348;stroke-dashoffset:347;animation:pdePnRmZ_draw 2000ms linear 375ms forwards;}.pdePnRmZ_22{stroke-dasharray:370 372;stroke-dashoffset:371;animation:pdePnRmZ_draw 2000ms linear 392ms forwards;}.pdePnRmZ_23{stroke-dasharray:343 345;stroke-dashoffset:344;animation:pdePnRmZ_draw 2000ms linear 410ms forwards;}.pdePnRmZ_24{stroke-dasharray:136 138;stroke-dashoffset:137;animation:pdePnRmZ_draw 2000ms linear 428ms forwards;}.pdePnRmZ_25{stroke-dasharray:39 41;stroke-dashoffset:40;animation:pdePnRmZ_draw 2000ms linear 446ms forwards;}.pdePnRmZ_26{stroke-dasharray:421 423;stroke-dashoffset:422;animation:pdePnRmZ_draw 2000ms linear 464ms forwards;}.pdePnRmZ_27{stroke-dasharray:238 240;stroke-dashoffset:239;animation:pdePnRmZ_draw 2000ms linear 482ms forwards;}.pdePnRmZ_28{stroke-dasharray:44 46;stroke-dashoffset:45;animation:pdePnRmZ_draw 2000ms linear 500ms forwards;}.pdePnRmZ_29{stroke-dasharray:86 88;stroke-dashoffset:87;animation:pdePnRmZ_draw 2000ms linear 517ms forwards;}.pdePnRmZ_30{stroke-dasharray:84 86;stroke-dashoffset:85;animation:pdePnRmZ_draw 2000ms linear 535ms forwards;}.pdePnRmZ_31{stroke-dasharray:37 39;stroke-dashoffset:38;animation:pdePnRmZ_draw 2000ms linear 553ms forwards;}.pdePnRmZ_32{stroke-dasharray:280 282;stroke-dashoffset:281;animation:pdePnRmZ_draw 2000ms linear 571ms forwards;}.pdePnRmZ_33{stroke-dasharray:94 96;stroke-dashoffset:95;animation:pdePnRmZ_draw 2000ms linear 589ms forwards;}.pdePnRmZ_34{stroke-dasharray:40 42;stroke-dashoffset:41;animation:pdePnRmZ_draw 2000ms linear 607ms forwards;}.pdePnRmZ_35{stroke-dasharray:92 94;stroke-dashoffset:93;animation:pdePnRmZ_draw 2000ms linear 625ms forwards;}.pdePnRmZ_36{stroke-dasharray:39 41;stroke-dashoffset:40;animation:pdePnRmZ_draw 2000ms linear 642ms forwards;}.pdePnRmZ_37{stroke-dasharray:378 380;stroke-dashoffset:379;animation:pdePnRmZ_draw 2000ms linear 660ms forwards;}.pdePnRmZ_38{stroke-dasharray:9 11;stroke-dashoffset:10;animation:pdePnRmZ_draw 2000ms linear 678ms forwards;}.pdePnRmZ_39{stroke-dasharray:71 73;stroke-dashoffset:72;animation:pdePnRmZ_draw 2000ms linear 696ms forwards;}.pdePnRmZ_40{stroke-dasharray:8 10;stroke-dashoffset:9;animation:pdePnRmZ_draw 2000ms linear 714ms forwards;}.pdePnRmZ_41{stroke-dasharray:83 85;stroke-dashoffset:84;animation:pdePnRmZ_draw 2000ms linear 732ms forwards;}.pdePnRmZ_42{stroke-dasharray:95 97;stroke-dashoffset:96;animation:pdePnRmZ_draw 2000ms linear 750ms forwards;}.pdePnRmZ_43{stroke-dasharray:42 44;stroke-dashoffset:43;animation:pdePnRmZ_draw 2000ms linear 767ms forwards;}.pdePnRmZ_44{stroke-dasharray:43 45;stroke-dashoffset:44;animation:pdePnRmZ_draw 2000ms linear 785ms forwards;}.pdePnRmZ_45{stroke-dasharray:39 41;stroke-dashoffset:40;animation:pdePnRmZ_draw 2000ms linear 803ms forwards;}.pdePnRmZ_46{stroke-dasharray:37 39;stroke-dashoffset:38;animation:pdePnRmZ_draw 2000ms linear 821ms forwards;}.pdePnRmZ_47{stroke-dasharray:20 22;stroke-dashoffset:21;animation:pdePnRmZ_draw 2000ms linear 839ms forwards;}.pdePnRmZ_48{stroke-dasharray:20 22;stroke-dashoffset:21;animation:pdePnRmZ_draw 2000ms linear 857ms forwards;}.pdePnRmZ_49{stroke-dasharray:20 22;stroke-dashoffset:21;animation:pdePnRmZ_draw 2000ms linear 875ms forwards;}.pdePnRmZ_50{stroke-dasharray:378 380;stroke-dashoffset:379;animation:pdePnRmZ_draw 2000ms linear 892ms forwards;}.pdePnRmZ_51{stroke-dasharray:258 260;stroke-dashoffset:259;animation:pdePnRmZ_draw 2000ms linear 910ms forwards;}.pdePnRmZ_52{stroke-dasharray:33 35;stroke-dashoffset:34;animation:pdePnRmZ_draw 2000ms linear 928ms forwards;}.pdePnRmZ_53{stroke-dasharray:10 12;stroke-dashoffset:11;animation:pdePnRmZ_draw 2000ms linear 946ms forwards;}.pdePnRmZ_54{stroke-dasharray:24 26;stroke-dashoffset:25;animation:pdePnRmZ_draw 2000ms linear 964ms forwards;}.pdePnRmZ_55{stroke-dasharray:2194 2196;stroke-dashoffset:2195;animation:pdePnRmZ_draw 2000ms linear 982ms forwards;}.pdePnRmZ_56{stroke-dasharray:1144 1146;stroke-dashoffset:1145;animation:pdePnRmZ_draw 2000ms linear 1000ms forwards;}@keyframes pdePnRmZ_draw{100%{stroke-dashoffset:0;}}@keyframes pdePnRmZ_fade{0%{stroke-opacity:1;}94.44444444444444%{stroke-opacity:1;}100%{stroke-opacity:0;}}</style></svg>
