<svg width="1238" height="208" viewBox="0 0 1238 208" fill="none" xmlns="http://www.w3.org/2000/svg">
<mask id="mask0" mask-type="alpha" maskUnits="userSpaceOnUse" x="0" y="0" width="1238" height="208">
<rect width="1238" height="208" fill="#C4C4C4"/>
</mask>
<g mask="url(#mask0)">
<g opacity="0.15">
<line x1="3" y1="76.875" x2="1243" y2="76.875" stroke="#999999" stroke-width="0.25"/>
<line x1="3" y1="83.875" x2="1243" y2="83.875" stroke="#999999" stroke-width="0.25"/>
<line x1="3" y1="90.875" x2="1243" y2="90.875" stroke="#999999" stroke-width="0.25"/>
<line x1="3" y1="97.875" x2="1243" y2="97.875" stroke="#999999" stroke-width="0.25"/>
<line x1="3" y1="104.5" x2="1243" y2="104.5" stroke="#999999"/>
<line x1="3" y1="111.875" x2="1243" y2="111.875" stroke="#999999" stroke-width="0.25"/>
<line x1="3" y1="118.875" x2="1243" y2="118.875" stroke="#999999" stroke-width="0.25"/>
<line x1="3" y1="125.875" x2="1243" y2="125.875" stroke="#999999" stroke-width="0.25"/>
<line x1="3" y1="132.875" x2="1243" y2="132.875" stroke="#999999" stroke-width="0.25"/>
<line x1="3" y1="139.5" x2="1243" y2="139.5" stroke="#999999"/>
<line y1="6.875" x2="1240" y2="6.875" stroke="#999999" stroke-width="0.25"/>
<line y1="13.875" x2="1240" y2="13.875" stroke="#999999" stroke-width="0.25"/>
<line y1="20.875" x2="1240" y2="20.875" stroke="#999999" stroke-width="0.25"/>
<line y1="27.875" x2="1240" y2="27.875" stroke="#999999" stroke-width="0.25"/>
<line y1="34.5" x2="1240" y2="34.5" stroke="#999999"/>
<line y1="41.875" x2="1240" y2="41.875" stroke="#999999" stroke-width="0.25"/>
<line y1="48.875" x2="1240" y2="48.875" stroke="#999999" stroke-width="0.25"/>
<line y1="55.875" x2="1240" y2="55.875" stroke="#999999" stroke-width="0.25"/>
<line y1="62.875" x2="1240" y2="62.875" stroke="#999999" stroke-width="0.25"/>
<line y1="69.5" x2="1240" y2="69.5" stroke="#999999"/>
<line y1="146.875" x2="1240" y2="146.875" stroke="#999999" stroke-width="0.25"/>
<line y1="153.875" x2="1240" y2="153.875" stroke="#999999" stroke-width="0.25"/>
<line y1="160.875" x2="1240" y2="160.875" stroke="#999999" stroke-width="0.25"/>
<line y1="167.875" x2="1240" y2="167.875" stroke="#999999" stroke-width="0.25"/>
<line y1="174.5" x2="1240" y2="174.5" stroke="#999999"/>
<line y1="181.875" x2="1240" y2="181.875" stroke="#999999" stroke-width="0.25"/>
<line y1="188.875" x2="1240" y2="188.875" stroke="#999999" stroke-width="0.25"/>
<line y1="195.875" x2="1240" y2="195.875" stroke="#999999" stroke-width="0.25"/>
<line y1="202.875" x2="1240" y2="202.875" stroke="#999999" stroke-width="0.25"/>
<line x1="6.875" y1="217" x2="6.875" stroke="#999999" stroke-width="0.25"/>
<line x1="13.875" y1="217" x2="13.875" stroke="#999999" stroke-width="0.25"/>
<line x1="20.875" y1="217" x2="20.875" stroke="#999999" stroke-width="0.25"/>
<line x1="27.875" y1="217" x2="27.875" stroke="#999999" stroke-width="0.25"/>
<line x1="34.5" y1="217" x2="34.5" stroke="#999999"/>
<line x1="41.875" y1="217" x2="41.875" stroke="#999999" stroke-width="0.25"/>
<line x1="48.875" y1="217" x2="48.875" stroke="#999999" stroke-width="0.25"/>
<line x1="55.875" y1="217" x2="55.875" stroke="#999999" stroke-width="0.25"/>
<line x1="62.875" y1="217" x2="62.875" stroke="#999999" stroke-width="0.25"/>
<line x1="69.5" y1="217" x2="69.5" stroke="#999999"/>
<line x1="76.875" y1="217" x2="76.875" stroke="#999999" stroke-width="0.25"/>
<line x1="83.875" y1="217" x2="83.875" stroke="#999999" stroke-width="0.25"/>
<line x1="90.875" y1="217" x2="90.875" stroke="#999999" stroke-width="0.25"/>
<line x1="97.875" y1="217" x2="97.875" stroke="#999999" stroke-width="0.25"/>
<line x1="104.5" y1="217" x2="104.5" stroke="#999999"/>
<line x1="111.875" y1="217" x2="111.875" stroke="#999999" stroke-width="0.25"/>
<line x1="118.875" y1="217" x2="118.875" stroke="#999999" stroke-width="0.25"/>
<line x1="125.875" y1="217" x2="125.875" stroke="#999999" stroke-width="0.25"/>
<line x1="132.875" y1="217" x2="132.875" stroke="#999999" stroke-width="0.25"/>
<line x1="139.5" y1="217" x2="139.5" stroke="#999999"/>
<line x1="146.875" y1="217" x2="146.875" stroke="#999999" stroke-width="0.25"/>
<line x1="153.875" y1="217" x2="153.875" stroke="#999999" stroke-width="0.25"/>
<line x1="160.875" y1="217" x2="160.875" stroke="#999999" stroke-width="0.25"/>
<line x1="167.875" y1="217" x2="167.875" stroke="#999999" stroke-width="0.25"/>
<line x1="174.5" y1="217" x2="174.5" stroke="#999999"/>
<line x1="181.875" y1="217" x2="181.875" stroke="#999999" stroke-width="0.25"/>
<line x1="188.875" y1="217" x2="188.875" stroke="#999999" stroke-width="0.25"/>
<line x1="195.875" y1="217" x2="195.875" stroke="#999999" stroke-width="0.25"/>
<line x1="202.875" y1="217" x2="202.875" stroke="#999999" stroke-width="0.25"/>
<line x1="209.5" y1="217" x2="209.5" stroke="#999999"/>
<line x1="216.875" y1="217" x2="216.875" stroke="#999999" stroke-width="0.25"/>
<line x1="223.875" y1="217" x2="223.875" stroke="#999999" stroke-width="0.25"/>
<line x1="230.875" y1="217" x2="230.875" stroke="#999999" stroke-width="0.25"/>
<line x1="237.875" y1="217" x2="237.875" stroke="#999999" stroke-width="0.25"/>
<line x1="244.5" y1="217" x2="244.5" stroke="#999999"/>
<line x1="251.875" y1="217" x2="251.875" stroke="#999999" stroke-width="0.25"/>
<line x1="258.875" y1="217" x2="258.875" stroke="#999999" stroke-width="0.25"/>
<line x1="265.875" y1="217" x2="265.875" stroke="#999999" stroke-width="0.25"/>
<line x1="272.875" y1="217" x2="272.875" stroke="#999999" stroke-width="0.25"/>
<line x1="279.5" y1="217" x2="279.5" stroke="#999999"/>
<line x1="286.875" y1="217" x2="286.875" stroke="#999999" stroke-width="0.25"/>
<line x1="293.875" y1="217" x2="293.875" stroke="#999999" stroke-width="0.25"/>
<line x1="300.875" y1="217" x2="300.875" stroke="#999999" stroke-width="0.25"/>
<line x1="307.875" y1="217" x2="307.875" stroke="#999999" stroke-width="0.25"/>
<line x1="314.5" y1="217" x2="314.5" stroke="#999999"/>
<line x1="321.875" y1="217" x2="321.875" stroke="#999999" stroke-width="0.25"/>
<line x1="328.875" y1="217" x2="328.875" stroke="#999999" stroke-width="0.25"/>
<line x1="335.875" y1="217" x2="335.875" stroke="#999999" stroke-width="0.25"/>
<line x1="342.875" y1="217" x2="342.875" stroke="#999999" stroke-width="0.25"/>
<line x1="349.5" y1="217" x2="349.5" stroke="#999999"/>
<line x1="356.875" y1="217" x2="356.875" stroke="#999999" stroke-width="0.25"/>
<line x1="363.875" y1="217" x2="363.875" stroke="#999999" stroke-width="0.25"/>
<line x1="370.875" y1="217" x2="370.875" stroke="#999999" stroke-width="0.25"/>
<line x1="377.875" y1="217" x2="377.875" stroke="#999999" stroke-width="0.25"/>
<line x1="384.5" y1="217" x2="384.5" stroke="#999999"/>
<line x1="391.875" y1="217" x2="391.875" stroke="#999999" stroke-width="0.25"/>
<line x1="398.875" y1="217" x2="398.875" stroke="#999999" stroke-width="0.25"/>
<line x1="405.875" y1="217" x2="405.875" stroke="#999999" stroke-width="0.25"/>
<line x1="412.875" y1="217" x2="412.875" stroke="#999999" stroke-width="0.25"/>
<line x1="419.5" y1="217" x2="419.5" stroke="#999999"/>
<line x1="426.875" y1="217" x2="426.875" stroke="#999999" stroke-width="0.25"/>
<line x1="433.875" y1="217" x2="433.875" stroke="#999999" stroke-width="0.25"/>
<line x1="440.875" y1="217" x2="440.875" stroke="#999999" stroke-width="0.25"/>
<line x1="447.875" y1="217" x2="447.875" stroke="#999999" stroke-width="0.25"/>
<line x1="454.5" y1="217" x2="454.5" stroke="#999999"/>
<line x1="461.875" y1="217" x2="461.875" stroke="#999999" stroke-width="0.25"/>
<line x1="468.875" y1="217" x2="468.875" stroke="#999999" stroke-width="0.25"/>
<line x1="475.875" y1="217" x2="475.875" stroke="#999999" stroke-width="0.25"/>
<line x1="482.875" y1="217" x2="482.875" stroke="#999999" stroke-width="0.25"/>
<line x1="489.5" y1="217" x2="489.5" stroke="#999999"/>
<line x1="496.875" y1="217" x2="496.875" stroke="#999999" stroke-width="0.25"/>
<line x1="503.875" y1="217" x2="503.875" stroke="#999999" stroke-width="0.25"/>
<line x1="510.875" y1="217" x2="510.875" stroke="#999999" stroke-width="0.25"/>
<line x1="517.875" y1="217" x2="517.875" stroke="#999999" stroke-width="0.25"/>
<line x1="524.5" y1="217" x2="524.5" stroke="#999999"/>
<line x1="531.875" y1="217" x2="531.875" stroke="#999999" stroke-width="0.25"/>
<line x1="538.875" y1="217" x2="538.875" stroke="#999999" stroke-width="0.25"/>
<line x1="545.875" y1="217" x2="545.875" stroke="#999999" stroke-width="0.25"/>
<line x1="552.875" y1="217" x2="552.875" stroke="#999999" stroke-width="0.25"/>
<line x1="559.5" y1="217" x2="559.5" stroke="#999999"/>
<line x1="566.875" y1="217" x2="566.875" stroke="#999999" stroke-width="0.25"/>
<line x1="573.875" y1="217" x2="573.875" stroke="#999999" stroke-width="0.25"/>
<line x1="580.875" y1="217" x2="580.875" stroke="#999999" stroke-width="0.25"/>
<line x1="587.875" y1="217" x2="587.875" stroke="#999999" stroke-width="0.25"/>
<line x1="594.5" y1="217" x2="594.5" stroke="#999999"/>
<line x1="601.875" y1="217" x2="601.875" stroke="#999999" stroke-width="0.25"/>
<line x1="608.875" y1="217" x2="608.875" stroke="#999999" stroke-width="0.25"/>
<line x1="615.875" y1="217" x2="615.875" stroke="#999999" stroke-width="0.25"/>
<line x1="622.875" y1="217" x2="622.875" stroke="#999999" stroke-width="0.25"/>
<line x1="629.5" y1="217" x2="629.5" stroke="#999999"/>
<line x1="636.875" y1="217" x2="636.875" stroke="#999999" stroke-width="0.25"/>
<line x1="643.875" y1="217" x2="643.875" stroke="#999999" stroke-width="0.25"/>
<line x1="650.875" y1="217" x2="650.875" stroke="#999999" stroke-width="0.25"/>
<line x1="657.875" y1="217" x2="657.875" stroke="#999999" stroke-width="0.25"/>
<line x1="664.5" y1="217" x2="664.5" stroke="#999999"/>
<line x1="671.875" y1="217" x2="671.875" stroke="#999999" stroke-width="0.25"/>
<line x1="678.875" y1="217" x2="678.875" stroke="#999999" stroke-width="0.25"/>
<line x1="685.875" y1="217" x2="685.875" stroke="#999999" stroke-width="0.25"/>
<line x1="692.875" y1="217" x2="692.875" stroke="#999999" stroke-width="0.25"/>
<line x1="699.5" y1="217" x2="699.5" stroke="#999999"/>
<line x1="706.875" y1="217" x2="706.875" stroke="#999999" stroke-width="0.25"/>
<line x1="713.875" y1="217" x2="713.875" stroke="#999999" stroke-width="0.25"/>
<line x1="720.875" y1="217" x2="720.875" stroke="#999999" stroke-width="0.25"/>
<line x1="727.875" y1="217" x2="727.875" stroke="#999999" stroke-width="0.25"/>
<line x1="734.5" y1="217" x2="734.5" stroke="#999999"/>
<line x1="741.875" y1="217" x2="741.875" stroke="#999999" stroke-width="0.25"/>
<line x1="748.875" y1="217" x2="748.875" stroke="#999999" stroke-width="0.25"/>
<line x1="755.875" y1="217" x2="755.875" stroke="#999999" stroke-width="0.25"/>
<line x1="762.875" y1="217" x2="762.875" stroke="#999999" stroke-width="0.25"/>
<line x1="769.5" y1="217" x2="769.5" stroke="#999999"/>
<line x1="776.875" y1="217" x2="776.875" stroke="#999999" stroke-width="0.25"/>
<line x1="783.875" y1="217" x2="783.875" stroke="#999999" stroke-width="0.25"/>
<line x1="790.875" y1="217" x2="790.875" stroke="#999999" stroke-width="0.25"/>
<line x1="797.875" y1="217" x2="797.875" stroke="#999999" stroke-width="0.25"/>
<line x1="804.5" y1="217" x2="804.5" stroke="#999999"/>
<line x1="811.875" y1="217" x2="811.875" stroke="#999999" stroke-width="0.25"/>
<line x1="818.875" y1="217" x2="818.875" stroke="#999999" stroke-width="0.25"/>
<line x1="825.875" y1="217" x2="825.875" stroke="#999999" stroke-width="0.25"/>
<line x1="832.875" y1="217" x2="832.875" stroke="#999999" stroke-width="0.25"/>
<line x1="839.5" y1="217" x2="839.5" stroke="#999999"/>
<line x1="846.875" y1="217" x2="846.875" stroke="#999999" stroke-width="0.25"/>
<line x1="853.875" y1="217" x2="853.875" stroke="#999999" stroke-width="0.25"/>
<line x1="860.875" y1="217" x2="860.875" stroke="#999999" stroke-width="0.25"/>
<line x1="867.875" y1="217" x2="867.875" stroke="#999999" stroke-width="0.25"/>
<line x1="874.5" y1="217" x2="874.5" stroke="#999999"/>
<line x1="881.875" y1="217" x2="881.875" stroke="#999999" stroke-width="0.25"/>
<line x1="888.875" y1="217" x2="888.875" stroke="#999999" stroke-width="0.25"/>
<line x1="895.875" y1="217" x2="895.875" stroke="#999999" stroke-width="0.25"/>
<line x1="902.875" y1="217" x2="902.875" stroke="#999999" stroke-width="0.25"/>
<line x1="909.5" y1="217" x2="909.5" stroke="#999999"/>
<line x1="916.875" y1="217" x2="916.875" stroke="#999999" stroke-width="0.25"/>
<line x1="923.875" y1="217" x2="923.875" stroke="#999999" stroke-width="0.25"/>
<line x1="930.875" y1="217" x2="930.875" stroke="#999999" stroke-width="0.25"/>
<line x1="937.875" y1="217" x2="937.875" stroke="#999999" stroke-width="0.25"/>
<line x1="944.5" y1="217" x2="944.5" stroke="#999999"/>
<line x1="951.875" y1="217" x2="951.875" stroke="#999999" stroke-width="0.25"/>
<line x1="958.875" y1="217" x2="958.875" stroke="#999999" stroke-width="0.25"/>
<line x1="965.875" y1="217" x2="965.875" stroke="#999999" stroke-width="0.25"/>
<line x1="972.875" y1="217" x2="972.875" stroke="#999999" stroke-width="0.25"/>
<line x1="979.5" y1="217" x2="979.5" stroke="#999999"/>
<line x1="986.875" y1="217" x2="986.875" stroke="#999999" stroke-width="0.25"/>
<line x1="993.875" y1="217" x2="993.875" stroke="#999999" stroke-width="0.25"/>
<line x1="1000.88" y1="217" x2="1000.88" stroke="#999999" stroke-width="0.25"/>
<line x1="1007.88" y1="217" x2="1007.88" stroke="#999999" stroke-width="0.25"/>
<line x1="1014.5" y1="217" x2="1014.5" stroke="#999999"/>
<line x1="1021.88" y1="217" x2="1021.88" stroke="#999999" stroke-width="0.25"/>
<line x1="1028.88" y1="217" x2="1028.88" stroke="#999999" stroke-width="0.25"/>
<line x1="1035.88" y1="217" x2="1035.88" stroke="#999999" stroke-width="0.25"/>
<line x1="1042.88" y1="217" x2="1042.88" stroke="#999999" stroke-width="0.25"/>
<line x1="1049.5" y1="217" x2="1049.5" stroke="#999999"/>
<line x1="1056.88" y1="217" x2="1056.88" stroke="#999999" stroke-width="0.25"/>
<line x1="1063.88" y1="217" x2="1063.88" stroke="#999999" stroke-width="0.25"/>
<line x1="1070.88" y1="217" x2="1070.88" stroke="#999999" stroke-width="0.25"/>
<line x1="1077.88" y1="217" x2="1077.88" stroke="#999999" stroke-width="0.25"/>
<line x1="1084.5" y1="217" x2="1084.5" stroke="#999999"/>
<line x1="1091.88" y1="217" x2="1091.88" stroke="#999999" stroke-width="0.25"/>
<line x1="1098.88" y1="217" x2="1098.88" stroke="#999999" stroke-width="0.25"/>
<line x1="1105.88" y1="217" x2="1105.88" stroke="#999999" stroke-width="0.25"/>
<line x1="1112.88" y1="217" x2="1112.88" stroke="#999999" stroke-width="0.25"/>
<line x1="1119.5" y1="217" x2="1119.5" stroke="#999999"/>
<line x1="1126.88" y1="217" x2="1126.88" stroke="#999999" stroke-width="0.25"/>
<line x1="1133.88" y1="217" x2="1133.88" stroke="#999999" stroke-width="0.25"/>
<line x1="1140.88" y1="217" x2="1140.88" stroke="#999999" stroke-width="0.25"/>
<line x1="1147.88" y1="217" x2="1147.88" stroke="#999999" stroke-width="0.25"/>
<line x1="1154.5" y1="217" x2="1154.5" stroke="#999999"/>
<line x1="1161.88" y1="217" x2="1161.88" stroke="#999999" stroke-width="0.25"/>
<line x1="1168.88" y1="217" x2="1168.88" stroke="#999999" stroke-width="0.25"/>
<line x1="1175.88" y1="217" x2="1175.88" stroke="#999999" stroke-width="0.25"/>
<line x1="1182.88" y1="217" x2="1182.88" stroke="#999999" stroke-width="0.25"/>
<line x1="1189.5" y1="217" x2="1189.5" stroke="#999999"/>
<line x1="1196.88" y1="217" x2="1196.88" stroke="#999999" stroke-width="0.25"/>
<line x1="1203.88" y1="217" x2="1203.88" stroke="#999999" stroke-width="0.25"/>
<line x1="1210.88" y1="217" x2="1210.88" stroke="#999999" stroke-width="0.25"/>
<line x1="1217.88" y1="217" x2="1217.88" stroke="#999999" stroke-width="0.25"/>
<line x1="1224.5" y1="217" x2="1224.5" stroke="#999999"/>
<line x1="1231.88" y1="217" x2="1231.88" stroke="#999999" stroke-width="0.25"/>
</g>
</g>
</svg>
